<?xml version="1.0" encoding="UTF-8" standalone="no"?>
<svg
   width="880pt"
   height="480pt"
   viewBox="0 0 880 479.99999"
   version="1.1"
   id="svg481"
   sodipodi:docname="PSO.svg"
   inkscape:version="1.2.2 (732a01da63, 2022-12-09)"
   xmlns:inkscape="http://www.inkscape.org/namespaces/inkscape"
   xmlns:sodipodi="http://sodipodi.sourceforge.net/DTD/sodipodi-0.dtd"
   xmlns:xlink="http://www.w3.org/1999/xlink"
   xmlns="http://www.w3.org/2000/svg"
   xmlns:svg="http://www.w3.org/2000/svg"
   xmlns:rdf="http://www.w3.org/1999/02/22-rdf-syntax-ns#"
   xmlns:cc="http://creativecommons.org/ns#"
   xmlns:dc="http://purl.org/dc/elements/1.1/">
  <sodipodi:namedview
     id="namedview483"
     pagecolor="#ffffff"
     bordercolor="#000000"
     borderopacity="0.25"
     inkscape:showpageshadow="2"
     inkscape:pageopacity="0.0"
     inkscape:pagecheckerboard="0"
     inkscape:deskcolor="#d1d1d1"
     inkscape:document-units="pt"
     showgrid="false"
     inkscape:zoom="1.0055438"
     inkscape:cx="678.23999"
     inkscape:cy="375.91601"
     inkscape:window-width="2560"
     inkscape:window-height="1377"
     inkscape:window-x="-8"
     inkscape:window-y="-8"
     inkscape:window-maximized="1"
     inkscape:current-layer="svg481" />
  <metadata
     id="metadata2">
    <rdf:RDF>
      <cc:Work>
        <dc:type
           rdf:resource="http://purl.org/dc/dcmitype/StillImage" />
        <dc:date>2025-04-26T11:00:19.837610</dc:date>
        <dc:format>image/svg+xml</dc:format>
        <dc:creator>
          <cc:Agent>
            <dc:title>Matplotlib v3.7.2, https://matplotlib.org/</dc:title>
          </cc:Agent>
        </dc:creator>
      </cc:Work>
    </rdf:RDF>
  </metadata>
  <defs
     id="defs6">
    <style
       type="text/css"
       id="style4">*{stroke-linejoin: round; stroke-linecap: butt}</style>
  </defs>
  <g
     id="axes_1"
     transform="translate(-77.56997,-57.431612)">
    <g
       id="patch_2">
      <path
         d="M 127.17,501.7464 H 915.624 V 67.6512 H 127.17 Z"
         style="fill:#ffffff"
         id="path11" />
    </g>
    <g
       id="matplotlib.axis_1">
      <g
         id="xtick_1">
        <g
           id="line2d_1">
          <path
             d="M 127.17,501.7464 V 67.6512"
             clip-path="url(#p073e4e198a)"
             style="fill:none;stroke:#b0b0b0;stroke-width:0.8;stroke-linecap:square"
             id="path14" />
        </g>
        <g
           id="line2d_2">
          <defs
             id="defs18">
            <path
               id="mbd55d92530"
               d="M 0,0 V -3.5"
               style="stroke:#000000;stroke-width:2" />
          </defs>
          <g
             id="g22">
            <use
               xlink:href="#mbd55d92530"
               x="127.17"
               y="501.7464"
               style="stroke:#000000;stroke-width:2"
               id="use20" />
          </g>
        </g>
        <g
           id="text_1">
          <!-- 0 -->
          <g
             transform="matrix(0.13,0,0,-0.13,123.03437,515.12437)"
             id="g30">
            <defs
               id="defs26">
              <path
                 id="DejaVuSans-30"
                 d="m 2034,4250 q -487,0 -733,-480 -245,-479 -245,-1442 0,-959 245,-1439 246,-480 733,-480 491,0 736,480 246,480 246,1439 0,963 -246,1442 -245,480 -736,480 z m 0,500 q 785,0 1199,-621 414,-620 414,-1801 0,-1178 -414,-1799 -414,-620 -1199,-620 -784,0 -1198,620 -414,621 -414,1799 0,1181 414,1801 414,621 1198,621 z"
                 transform="scale(0.015625)" />
            </defs>
            <use
               xlink:href="#DejaVuSans-30"
               id="use28" />
          </g>
        </g>
      </g>
      <g
         id="xtick_2">
        <g
           id="line2d_3">
          <path
             d="M 225.72675,501.7464 V 67.6512"
             clip-path="url(#p073e4e198a)"
             style="fill:none;stroke:#b0b0b0;stroke-width:0.8;stroke-linecap:square"
             id="path34" />
        </g>
        <g
           id="line2d_4">
          <g
             id="g39">
            <use
               xlink:href="#mbd55d92530"
               x="225.72675"
               y="501.7464"
               style="stroke:#000000;stroke-width:2"
               id="use37" />
          </g>
        </g>
        <g
           id="text_2">
          <!-- 50 -->
          <g
             transform="matrix(0.13,0,0,-0.13,217.4555,515.12437)"
             id="g49">
            <defs
               id="defs43">
              <path
                 id="DejaVuSans-35"
                 d="M 691,4666 H 3169 V 4134 H 1269 V 2991 q 137,47 274,70 138,23 276,23 781,0 1237,-428 457,-428 457,-1159 Q 3513,744 3044,326 2575,-91 1722,-91 1428,-91 1123,-41 819,9 494,109 v 635 q 281,-153 581,-228 300,-75 634,-75 541,0 856,284 316,284 316,772 0,487 -316,771 -315,285 -856,285 -253,0 -505,-56 -251,-56 -513,-175 z"
                 transform="scale(0.015625)" />
            </defs>
            <use
               xlink:href="#DejaVuSans-35"
               id="use45" />
            <use
               xlink:href="#DejaVuSans-30"
               x="63.623047"
               id="use47" />
          </g>
        </g>
      </g>
      <g
         id="xtick_3">
        <g
           id="line2d_5">
          <path
             d="M 324.2835,501.7464 V 67.6512"
             clip-path="url(#p073e4e198a)"
             style="fill:none;stroke:#b0b0b0;stroke-width:0.8;stroke-linecap:square"
             id="path53" />
        </g>
        <g
           id="line2d_6">
          <g
             id="g58">
            <use
               xlink:href="#mbd55d92530"
               x="324.28351"
               y="501.7464"
               style="stroke:#000000;stroke-width:2"
               id="use56" />
          </g>
        </g>
        <g
           id="text_3">
          <!-- 100 -->
          <g
             transform="matrix(0.13,0,0,-0.13,311.87662,515.12437)"
             id="g70">
            <defs
               id="defs62">
              <path
                 id="DejaVuSans-31"
                 d="M 794,531 H 1825 V 4091 L 703,3866 v 575 l 1116,225 h 631 V 531 H 3481 V 0 H 794 Z"
                 transform="scale(0.015625)" />
            </defs>
            <use
               xlink:href="#DejaVuSans-31"
               id="use64" />
            <use
               xlink:href="#DejaVuSans-30"
               x="63.623047"
               id="use66" />
            <use
               xlink:href="#DejaVuSans-30"
               x="127.24609"
               id="use68" />
          </g>
        </g>
      </g>
      <g
         id="xtick_4">
        <g
           id="line2d_7">
          <path
             d="M 422.84025,501.7464 V 67.6512"
             clip-path="url(#p073e4e198a)"
             style="fill:none;stroke:#b0b0b0;stroke-width:0.8;stroke-linecap:square"
             id="path74" />
        </g>
        <g
           id="line2d_8">
          <g
             id="g79">
            <use
               xlink:href="#mbd55d92530"
               x="422.84024"
               y="501.7464"
               style="stroke:#000000;stroke-width:2"
               id="use77" />
          </g>
        </g>
        <g
           id="text_4">
          <!-- 150 -->
          <g
             transform="matrix(0.13,0,0,-0.13,410.43337,515.12437)"
             id="g88">
            <use
               xlink:href="#DejaVuSans-31"
               id="use82" />
            <use
               xlink:href="#DejaVuSans-35"
               x="63.623047"
               id="use84" />
            <use
               xlink:href="#DejaVuSans-30"
               x="127.24609"
               id="use86" />
          </g>
        </g>
      </g>
      <g
         id="xtick_5">
        <g
           id="line2d_9">
          <path
             d="M 521.397,501.7464 V 67.6512"
             clip-path="url(#p073e4e198a)"
             style="fill:none;stroke:#b0b0b0;stroke-width:0.8;stroke-linecap:square"
             id="path92" />
        </g>
        <g
           id="line2d_10">
          <g
             id="g97">
            <use
               xlink:href="#mbd55d92530"
               x="521.39697"
               y="501.7464"
               style="stroke:#000000;stroke-width:2"
               id="use95" />
          </g>
        </g>
        <g
           id="text_5">
          <!-- 200 -->
          <g
             transform="matrix(0.13,0,0,-0.13,508.99012,515.12437)"
             id="g109">
            <defs
               id="defs101">
              <path
                 id="DejaVuSans-32"
                 d="M 1228,531 H 3431 V 0 H 469 v 531 q 359,372 979,998 621,627 780,809 303,340 423,576 121,236 121,464 0,372 -261,606 -261,235 -680,235 -297,0 -627,-103 -329,-103 -704,-313 v 638 q 381,153 712,231 332,78 607,78 725,0 1156,-363 431,-362 431,-968 0,-288 -108,-546 -107,-257 -392,-607 -78,-91 -497,-524 Q 1991,1309 1228,531 Z"
                 transform="scale(0.015625)" />
            </defs>
            <use
               xlink:href="#DejaVuSans-32"
               id="use103" />
            <use
               xlink:href="#DejaVuSans-30"
               x="63.623047"
               id="use105" />
            <use
               xlink:href="#DejaVuSans-30"
               x="127.24609"
               id="use107" />
          </g>
        </g>
      </g>
      <g
         id="xtick_6">
        <g
           id="line2d_11">
          <path
             d="M 619.95375,501.7464 V 67.6512"
             clip-path="url(#p073e4e198a)"
             style="fill:none;stroke:#b0b0b0;stroke-width:0.8;stroke-linecap:square"
             id="path113" />
        </g>
        <g
           id="line2d_12">
          <g
             id="g118">
            <use
               xlink:href="#mbd55d92530"
               x="619.95374"
               y="501.7464"
               style="stroke:#000000;stroke-width:2"
               id="use116" />
          </g>
        </g>
        <g
           id="text_6">
          <!-- 250 -->
          <g
             transform="matrix(0.13,0,0,-0.13,607.54687,515.12437)"
             id="g127">
            <use
               xlink:href="#DejaVuSans-32"
               id="use121" />
            <use
               xlink:href="#DejaVuSans-35"
               x="63.623047"
               id="use123" />
            <use
               xlink:href="#DejaVuSans-30"
               x="127.24609"
               id="use125" />
          </g>
        </g>
      </g>
      <g
         id="xtick_7">
        <g
           id="line2d_13">
          <path
             d="M 718.5105,501.7464 V 67.6512"
             clip-path="url(#p073e4e198a)"
             style="fill:none;stroke:#b0b0b0;stroke-width:0.8;stroke-linecap:square"
             id="path131" />
        </g>
        <g
           id="line2d_14">
          <g
             id="g136">
            <use
               xlink:href="#mbd55d92530"
               x="718.5105"
               y="501.7464"
               style="stroke:#000000;stroke-width:2"
               id="use134" />
          </g>
        </g>
        <g
           id="text_7">
          <!-- 300 -->
          <g
             transform="matrix(0.13,0,0,-0.13,706.10362,515.12437)"
             id="g148">
            <defs
               id="defs140">
              <path
                 id="DejaVuSans-33"
                 d="m 2597,2516 q 453,-97 707,-404 255,-306 255,-756 0,-690 -475,-1069 -475,-378 -1350,-378 -293,0 -604,58 -311,58 -642,174 v 609 q 262,-153 574,-231 313,-78 654,-78 593,0 904,234 311,234 311,681 0,413 -289,645 -289,233 -804,233 h -544 v 519 h 569 q 465,0 712,186 247,186 247,536 0,359 -255,551 -254,193 -729,193 -260,0 -557,-57 -297,-56 -653,-174 v 562 q 360,100 674,150 314,50 592,50 719,0 1137,-327 419,-326 419,-882 0,-388 -222,-655 -222,-267 -631,-370 z"
                 transform="scale(0.015625)" />
            </defs>
            <use
               xlink:href="#DejaVuSans-33"
               id="use142" />
            <use
               xlink:href="#DejaVuSans-30"
               x="63.623047"
               id="use144" />
            <use
               xlink:href="#DejaVuSans-30"
               x="127.24609"
               id="use146" />
          </g>
        </g>
      </g>
      <g
         id="xtick_8">
        <g
           id="line2d_15">
          <path
             d="M 817.06725,501.7464 V 67.6512"
             clip-path="url(#p073e4e198a)"
             style="fill:none;stroke:#b0b0b0;stroke-width:0.8;stroke-linecap:square"
             id="path152" />
        </g>
        <g
           id="line2d_16">
          <g
             id="g157">
            <use
               xlink:href="#mbd55d92530"
               x="817.06726"
               y="501.7464"
               style="stroke:#000000;stroke-width:2"
               id="use155" />
          </g>
        </g>
        <g
           id="text_8">
          <!-- 350 -->
          <g
             transform="matrix(0.13,0,0,-0.13,804.66038,515.12437)"
             id="g166">
            <use
               xlink:href="#DejaVuSans-33"
               id="use160" />
            <use
               xlink:href="#DejaVuSans-35"
               x="63.623047"
               id="use162" />
            <use
               xlink:href="#DejaVuSans-30"
               x="127.24609"
               id="use164" />
          </g>
        </g>
      </g>
      <g
         id="xtick_9">
        <g
           id="line2d_17">
          <path
             d="M 915.624,501.7464 V 67.6512"
             clip-path="url(#p073e4e198a)"
             style="fill:none;stroke:#b0b0b0;stroke-width:0.8;stroke-linecap:square"
             id="path170" />
        </g>
        <g
           id="line2d_18">
          <g
             id="g175">
            <use
               xlink:href="#mbd55d92530"
               x="915.62402"
               y="501.7464"
               style="stroke:#000000;stroke-width:2"
               id="use173" />
          </g>
        </g>
        <g
           id="text_9">
          <!-- 400 -->
          <g
             transform="matrix(0.13,0,0,-0.13,903.21712,515.12437)"
             id="g187">
            <defs
               id="defs179">
              <path
                 id="DejaVuSans-34"
                 d="M 2419,4116 825,1625 h 1594 z m -166,550 h 794 V 1625 h 666 V 1100 H 3047 V 0 H 2419 V 1100 H 313 v 609 z"
                 transform="scale(0.015625)" />
            </defs>
            <use
               xlink:href="#DejaVuSans-34"
               id="use181" />
            <use
               xlink:href="#DejaVuSans-30"
               x="63.623047"
               id="use183" />
            <use
               xlink:href="#DejaVuSans-30"
               x="127.24609"
               id="use185" />
          </g>
        </g>
      </g>
      <g
         id="text_10">
        <!-- Iter -->
        <g
           transform="matrix(0.15,0,0,-0.15,508.54622,533.22562)"
           id="g205">
          <defs
             id="defs195">
            <path
               id="DejaVuSans-49"
               d="m 628,4666 h 631 V 0 H 628 Z"
               transform="scale(0.015625)" />
            <path
               id="DejaVuSans-74"
               d="M 1172,4494 V 3500 H 2356 V 3053 H 1172 V 1153 q 0,-428 117,-550 117,-122 477,-122 h 590 V 0 H 1766 Q 1100,0 847,248 594,497 594,1153 V 3053 H 172 v 447 h 422 v 994 z"
               transform="scale(0.015625)" />
            <path
               id="DejaVuSans-65"
               d="M 3597,1894 V 1613 H 953 q 38,-594 358,-905 320,-311 892,-311 331,0 642,81 311,81 618,244 V 178 Q 3153,47 2828,-22 2503,-91 2169,-91 1331,-91 842,396 353,884 353,1716 q 0,859 464,1363 464,505 1252,505 706,0 1117,-455 411,-454 411,-1235 z m -575,169 q -6,471 -264,752 -258,282 -683,282 -481,0 -770,-272 -289,-272 -333,-766 z"
               transform="scale(0.015625)" />
            <path
               id="DejaVuSans-72"
               d="m 2631,2963 q -97,56 -211,82 -114,27 -251,27 -488,0 -749,-317 -261,-317 -261,-911 V 0 H 581 v 3500 h 578 v -544 q 182,319 472,473 291,155 707,155 59,0 131,-8 72,-7 159,-23 z"
               transform="scale(0.015625)" />
          </defs>
          <use
             xlink:href="#DejaVuSans-49"
             id="use197" />
          <use
             xlink:href="#DejaVuSans-74"
             x="29.492188"
             id="use199" />
          <use
             xlink:href="#DejaVuSans-65"
             x="68.701172"
             id="use201" />
          <use
             xlink:href="#DejaVuSans-72"
             x="130.22461"
             id="use203" />
        </g>
      </g>
    </g>
    <g
       id="matplotlib.axis_2">
      <g
         id="ytick_1">
        <g
           id="line2d_19">
          <path
             d="M 127.17,501.7464 H 915.624"
             clip-path="url(#p073e4e198a)"
             style="fill:none;stroke:#b0b0b0;stroke-width:0.8;stroke-linecap:square"
             id="path209" />
        </g>
        <g
           id="line2d_20">
          <defs
             id="defs213">
            <path
               id="m480892c767"
               d="M 0,0 H 3.5"
               style="stroke:#000000;stroke-width:2" />
          </defs>
          <g
             id="g217">
            <use
               xlink:href="#m480892c767"
               x="127.17"
               y="501.7464"
               style="stroke:#000000;stroke-width:2"
               id="use215" />
          </g>
        </g>
        <g
           id="text_11">
          <!-- 0.5 -->
          <g
             transform="matrix(0.13,0,0,-0.13,102.99594,506.68538)"
             id="g229">
            <defs
               id="defs221">
              <path
                 id="DejaVuSans-2e"
                 d="m 684,794 h 660 V 0 H 684 Z"
                 transform="scale(0.015625)" />
            </defs>
            <use
               xlink:href="#DejaVuSans-30"
               id="use223" />
            <use
               xlink:href="#DejaVuSans-2e"
               x="63.623047"
               id="use225" />
            <use
               xlink:href="#DejaVuSans-35"
               x="95.410156"
               id="use227" />
          </g>
        </g>
      </g>
      <g
         id="ytick_2">
        <g
           id="line2d_21">
          <path
             d="M 127.17,414.92736 H 915.624"
             clip-path="url(#p073e4e198a)"
             style="fill:none;stroke:#b0b0b0;stroke-width:0.8;stroke-linecap:square"
             id="path233" />
        </g>
        <g
           id="line2d_22">
          <g
             id="g238">
            <use
               xlink:href="#m480892c767"
               x="127.17"
               y="414.92737"
               style="stroke:#000000;stroke-width:2"
               id="use236" />
          </g>
        </g>
        <g
           id="text_12">
          <!-- 0.6 -->
          <g
             transform="matrix(0.13,0,0,-0.13,102.99594,419.86634)"
             id="g250">
            <defs
               id="defs242">
              <path
                 id="DejaVuSans-36"
                 d="m 2113,2584 q -425,0 -674,-291 -248,-290 -248,-796 0,-503 248,-796 249,-292 674,-292 425,0 673,292 248,293 248,796 0,506 -248,796 -248,291 -673,291 z m 1253,1979 v -575 q -238,112 -480,171 -242,60 -480,60 -625,0 -955,-422 -329,-422 -376,-1275 184,272 462,417 279,145 613,145 703,0 1111,-427 408,-426 408,-1160 0,-719 -425,-1154 -425,-434 -1131,-434 -810,0 -1238,620 -428,621 -428,1799 0,1106 525,1764 525,658 1409,658 238,0 480,-47 242,-47 505,-140 z"
                 transform="scale(0.015625)" />
            </defs>
            <use
               xlink:href="#DejaVuSans-30"
               id="use244" />
            <use
               xlink:href="#DejaVuSans-2e"
               x="63.623047"
               id="use246" />
            <use
               xlink:href="#DejaVuSans-36"
               x="95.410156"
               id="use248" />
          </g>
        </g>
      </g>
      <g
         id="ytick_3">
        <g
           id="line2d_23">
          <path
             d="M 127.17,328.10832 H 915.624"
             clip-path="url(#p073e4e198a)"
             style="fill:none;stroke:#b0b0b0;stroke-width:0.8;stroke-linecap:square"
             id="path254" />
        </g>
        <g
           id="line2d_24">
          <g
             id="g259">
            <use
               xlink:href="#m480892c767"
               x="127.17"
               y="328.10831"
               style="stroke:#000000;stroke-width:2"
               id="use257" />
          </g>
        </g>
        <g
           id="text_13">
          <!-- 0.7 -->
          <g
             transform="matrix(0.13,0,0,-0.13,102.99594,333.0473)"
             id="g271">
            <defs
               id="defs263">
              <path
                 id="DejaVuSans-37"
                 d="M 525,4666 H 3525 V 4397 L 1831,0 H 1172 L 2766,4134 H 525 Z"
                 transform="scale(0.015625)" />
            </defs>
            <use
               xlink:href="#DejaVuSans-30"
               id="use265" />
            <use
               xlink:href="#DejaVuSans-2e"
               x="63.623047"
               id="use267" />
            <use
               xlink:href="#DejaVuSans-37"
               x="95.410156"
               id="use269" />
          </g>
        </g>
      </g>
      <g
         id="ytick_4">
        <g
           id="line2d_25">
          <path
             d="M 127.17,241.28928 H 915.624"
             clip-path="url(#p073e4e198a)"
             style="fill:none;stroke:#b0b0b0;stroke-width:0.8;stroke-linecap:square"
             id="path275" />
        </g>
        <g
           id="line2d_26">
          <g
             id="g280">
            <use
               xlink:href="#m480892c767"
               x="127.17"
               y="241.28928"
               style="stroke:#000000;stroke-width:2"
               id="use278" />
          </g>
        </g>
        <g
           id="text_14">
          <!-- 0.8 -->
          <g
             transform="matrix(0.13,0,0,-0.13,102.99594,246.22826)"
             id="g292">
            <defs
               id="defs284">
              <path
                 id="DejaVuSans-38"
                 d="m 2034,2216 q -450,0 -708,-241 -257,-241 -257,-662 0,-422 257,-663 258,-241 708,-241 450,0 709,242 260,243 260,662 0,421 -258,662 -257,241 -711,241 z m -631,268 q -406,100 -633,378 -226,279 -226,679 0,559 398,884 399,325 1092,325 697,0 1094,-325 397,-325 397,-884 0,-400 -227,-679 -226,-278 -629,-378 456,-106 710,-416 255,-309 255,-755 Q 3634,634 3220,271 2806,-91 2034,-91 1263,-91 848,271 434,634 434,1313 q 0,446 256,755 257,310 713,416 z m -231,997 q 0,-362 226,-565 227,-203 636,-203 407,0 636,203 230,203 230,565 0,363 -230,566 -229,203 -636,203 -409,0 -636,-203 -226,-203 -226,-566 z"
                 transform="scale(0.015625)" />
            </defs>
            <use
               xlink:href="#DejaVuSans-30"
               id="use286" />
            <use
               xlink:href="#DejaVuSans-2e"
               x="63.623047"
               id="use288" />
            <use
               xlink:href="#DejaVuSans-38"
               x="95.410156"
               id="use290" />
          </g>
        </g>
      </g>
      <g
         id="ytick_5">
        <g
           id="line2d_27">
          <path
             d="M 127.17,154.47024 H 915.624"
             clip-path="url(#p073e4e198a)"
             style="fill:none;stroke:#b0b0b0;stroke-width:0.8;stroke-linecap:square"
             id="path296" />
        </g>
        <g
           id="line2d_28">
          <g
             id="g301">
            <use
               xlink:href="#m480892c767"
               x="127.17"
               y="154.47025"
               style="stroke:#000000;stroke-width:2"
               id="use299" />
          </g>
        </g>
        <g
           id="text_15">
          <!-- 0.9 -->
          <g
             transform="matrix(0.13,0,0,-0.13,102.99594,159.40922)"
             id="g313">
            <defs
               id="defs305">
              <path
                 id="DejaVuSans-39"
                 d="m 703,97 v 575 q 238,-113 481,-172 244,-59 479,-59 625,0 954,420 330,420 377,1277 -181,-269 -460,-413 -278,-144 -615,-144 -700,0 -1108,423 -408,424 -408,1159 0,718 425,1152 425,435 1131,435 810,0 1236,-621 427,-620 427,-1801 Q 3622,1225 3098,567 2575,-91 1691,-91 1453,-91 1209,-44 966,3 703,97 Z m 1256,1978 q 425,0 673,290 249,291 249,798 0,503 -249,795 -248,292 -673,292 -425,0 -673,-292 -248,-292 -248,-795 0,-507 248,-798 248,-290 673,-290 z"
                 transform="scale(0.015625)" />
            </defs>
            <use
               xlink:href="#DejaVuSans-30"
               id="use307" />
            <use
               xlink:href="#DejaVuSans-2e"
               x="63.623047"
               id="use309" />
            <use
               xlink:href="#DejaVuSans-39"
               x="95.410156"
               id="use311" />
          </g>
        </g>
      </g>
      <g
         id="ytick_6">
        <g
           id="line2d_29">
          <path
             d="M 127.17,67.6512 H 915.624"
             clip-path="url(#p073e4e198a)"
             style="fill:none;stroke:#b0b0b0;stroke-width:0.8;stroke-linecap:square"
             id="path317" />
        </g>
        <g
           id="line2d_30">
          <g
             id="g322">
            <use
               xlink:href="#m480892c767"
               x="127.17"
               y="67.651199"
               style="stroke:#000000;stroke-width:2"
               id="use320" />
          </g>
        </g>
        <g
           id="text_16">
          <!-- 1.0 -->
          <g
             transform="matrix(0.13,0,0,-0.13,102.99594,72.590184)"
             id="g331">
            <use
               xlink:href="#DejaVuSans-31"
               id="use325" />
            <use
               xlink:href="#DejaVuSans-2e"
               x="63.623047"
               id="use327" />
            <use
               xlink:href="#DejaVuSans-30"
               x="95.410156"
               id="use329" />
          </g>
        </g>
      </g>
      <g
         id="text_17">
        <!-- NSE -->
        <g
           transform="matrix(0,-0.15,-0.15,0,95.876406,299.81013)"
           id="g346">
          <defs
             id="defs338">
            <path
               id="DejaVuSans-4e"
               d="m 628,4666 h 850 L 3547,763 v 3903 h 612 V 0 H 3309 L 1241,3903 V 0 H 628 Z"
               transform="scale(0.015625)" />
            <path
               id="DejaVuSans-53"
               d="m 3425,4513 v -616 q -359,172 -678,256 -319,85 -616,85 -515,0 -795,-200 -280,-200 -280,-569 0,-310 186,-468 186,-157 705,-254 l 381,-78 q 706,-135 1042,-474 336,-339 336,-907 0,-679 -455,-1029 -454,-350 -1332,-350 -331,0 -705,75 -373,75 -773,222 v 650 q 384,-215 753,-325 369,-109 725,-109 540,0 834,212 294,213 294,607 0,343 -211,537 -211,194 -692,291 l -385,75 q -706,140 -1022,440 -315,300 -315,835 0,619 436,975 436,356 1201,356 329,0 669,-60 341,-59 697,-177 z"
               transform="scale(0.015625)" />
            <path
               id="DejaVuSans-45"
               d="M 628,4666 H 3578 V 4134 H 1259 V 2753 H 3481 V 2222 H 1259 V 531 H 3634 V 0 H 628 Z"
               transform="scale(0.015625)" />
          </defs>
          <use
             xlink:href="#DejaVuSans-4e"
             id="use340" />
          <use
             xlink:href="#DejaVuSans-53"
             x="74.804688"
             id="use342" />
          <use
             xlink:href="#DejaVuSans-45"
             x="138.28125"
             id="use344" />
        </g>
      </g>
    </g>
    <g
       id="line2d_31">
      <path
         d="m 127.17,481.79228 1.97113,-3.81408 1.97114,-9.19335 1.97113,-9.79156 1.97114,-8.6e-4 1.97113,-5.16302 1.97114,-12.34719 1.97113,-2.00362 1.97114,-3.25556 1.97113,-6.49451 1.97114,-3.99135 3.94227,-10.00358 1.97113,-11.28464 1.97114,-3.98229 1.97113,-8.7e-4 1.97114,-6.22242 1.97113,-2.35393 1.97114,-6.13743 1.97113,-6.52874 1.97114,-5.35283 1.97113,-8.6e-4 1.97114,-2.18313 1.97113,-9.02688 1.97114,-0.10193 1.97113,-2.83179 1.97114,-7.41519 1.97113,-1.19594 1.97114,-3.72782 1.97114,-2.20619 1.97113,-4.82226 1.97113,-9.70398 1.97114,-8.7e-4 1.97113,-2.29334 1.97114,-3.0545 1.97113,-4.00394 1.97114,-8.6e-4 1.97113,-9.30567 1.97114,-0.21742 1.97113,-8.7e-4 1.97114,-4.04872 1.97113,-0.32327 1.97114,-1.61936 1.97113,-3.48001 1.97114,-7.73267 1.97113,-8.7e-4 1.97114,-0.66774 1.97113,-5.9252 1.97114,-8.6e-4 1.97113,-6.98392 3.94228,-0.002 1.97113,-2.11391 1.97113,-2.7715 1.97114,-3.96315 1.97113,-1.66725 1.97114,-0.79037 1.97113,-8.7e-4 1.97114,-2.65631 1.97113,-4.7342 3.94227,-0.002 1.97114,-5.2811 1.97113,-2.17742 1.97114,-0.95428 1.97113,-4.0769 1.97114,-8.7e-4 1.97113,-1.79927 1.97114,-8.6e-4 1.97113,-0.77466 1.97114,-1.18861 1.97113,-6.62881 1.97114,-8.7e-4 1.97114,-3.0663 1.97113,-5.14375 7.88454,-0.003 1.97113,-3.99384 3.94227,-0.002 1.97114,-2.38451 5.9134,-0.003 1.97114,-2.19134 3.94227,-0.002 1.97114,-1.49212 1.97113,-8.7e-4 1.97114,-4.02925 5.9134,-0.003 1.97113,-5.14385 7.88454,-0.003 1.97114,-4.20208 7.88454,-0.003 1.97114,-0.46585 1.97113,-7.18497 5.9134,-0.003 1.97114,-2.12806 3.94227,-0.002 1.97113,-5.22678 15.76909,-0.007 1.97113,-0.70407 3.94227,-0.002 1.97113,-4.98517 17.74022,-0.008 1.97114,-1.80263 9.85567,-0.004 1.97113,-1.28342 1.97114,-0.79905 7.88454,-0.003 1.97114,-0.46198 15.76907,-0.007 1.97114,-5.90607 19.71135,-0.009 1.97113,-2.80288 21.68249,-0.0453 1.97114,-5.84582 57.16291,-0.0252 1.97113,-8.73276 82.78768,-0.13718 291.72798,-3.85476 v 0"
         clip-path="url(#p073e4e198a)"
         style="fill:none;stroke:#1f77b4;stroke-width:3;stroke-linecap:square"
         id="path350" />
      <defs
         id="defs353">
        <path
           id="m2cc3a12846"
           d="M 0,5 C 1.326016,5 2.597899,4.473168 3.535534,3.535534 4.473168,2.597899 5,1.326016 5,0 5,-1.326016 4.473168,-2.597899 3.535534,-3.535534 2.597899,-4.473168 1.326016,-5 0,-5 -1.326016,-5 -2.597899,-4.473168 -3.535534,-3.535534 -4.473168,-2.597899 -5,-1.326016 -5,0 -5,1.326016 -4.473168,2.597899 -3.535534,3.535534 -2.597899,4.473168 -1.326016,5 0,5 Z"
           style="stroke:#273f4f;stroke-width:2" />
      </defs>
      <g
         clip-path="url(#p073e4e198a)"
         id="g435">
        <use
           xlink:href="#m2cc3a12846"
           x="127.17"
           y="481.7923"
           style="fill:#ffffff;stroke:#273f4f;stroke-width:2"
           id="use355" />
        <use
           xlink:href="#m2cc3a12846"
           x="146.88135"
           y="425.73718"
           style="fill:#ffffff;stroke:#273f4f;stroke-width:2"
           id="use357" />
        <use
           xlink:href="#m2cc3a12846"
           x="166.5927"
           y="373.87045"
           style="fill:#ffffff;stroke:#273f4f;stroke-width:2"
           id="use359" />
        <use
           xlink:href="#m2cc3a12846"
           x="186.30405"
           y="340.35846"
           style="fill:#ffffff;stroke:#273f4f;stroke-width:2"
           id="use361" />
        <use
           xlink:href="#m2cc3a12846"
           x="206.0154"
           y="307.7283"
           style="fill:#ffffff;stroke:#273f4f;stroke-width:2"
           id="use363" />
        <use
           xlink:href="#m2cc3a12846"
           x="225.72675"
           y="280.99353"
           style="fill:#ffffff;stroke:#273f4f;stroke-width:2"
           id="use365" />
        <use
           xlink:href="#m2cc3a12846"
           x="245.4381"
           y="262.29422"
           style="fill:#ffffff;stroke:#273f4f;stroke-width:2"
           id="use367" />
        <use
           xlink:href="#m2cc3a12846"
           x="265.14944"
           y="246.03938"
           style="fill:#ffffff;stroke:#273f4f;stroke-width:2"
           id="use369" />
        <use
           xlink:href="#m2cc3a12846"
           x="284.86081"
           y="227.20146"
           style="fill:#ffffff;stroke:#273f4f;stroke-width:2"
           id="use371" />
        <use
           xlink:href="#m2cc3a12846"
           x="304.57214"
           y="221.12741"
           style="fill:#ffffff;stroke:#273f4f;stroke-width:2"
           id="use373" />
        <use
           xlink:href="#m2cc3a12846"
           x="324.28351"
           y="207.74617"
           style="fill:#ffffff;stroke:#273f4f;stroke-width:2"
           id="use375" />
        <use
           xlink:href="#m2cc3a12846"
           x="343.99484"
           y="197.96121"
           style="fill:#ffffff;stroke:#273f4f;stroke-width:2"
           id="use377" />
        <use
           xlink:href="#m2cc3a12846"
           x="363.70621"
           y="192.72661"
           style="fill:#ffffff;stroke:#273f4f;stroke-width:2"
           id="use379" />
        <use
           xlink:href="#m2cc3a12846"
           x="383.41754"
           y="187.03043"
           style="fill:#ffffff;stroke:#273f4f;stroke-width:2"
           id="use381" />
        <use
           xlink:href="#m2cc3a12846"
           x="403.12891"
           y="185.21999"
           style="fill:#ffffff;stroke:#273f4f;stroke-width:2"
           id="use383" />
        <use
           xlink:href="#m2cc3a12846"
           x="422.84024"
           y="182.66946"
           style="fill:#ffffff;stroke:#273f4f;stroke-width:2"
           id="use385" />
        <use
           xlink:href="#m2cc3a12846"
           x="442.55161"
           y="176.75557"
           style="fill:#ffffff;stroke:#273f4f;stroke-width:2"
           id="use387" />
        <use
           xlink:href="#m2cc3a12846"
           x="462.26294"
           y="173.94489"
           style="fill:#ffffff;stroke:#273f4f;stroke-width:2"
           id="use389" />
        <use
           xlink:href="#m2cc3a12846"
           x="481.9743"
           y="168.05553"
           style="fill:#ffffff;stroke:#273f4f;stroke-width:2"
           id="use391" />
        <use
           xlink:href="#m2cc3a12846"
           x="501.68564"
           y="168.04684"
           style="fill:#ffffff;stroke:#273f4f;stroke-width:2"
           id="use393" />
        <use
           xlink:href="#m2cc3a12846"
           x="521.39697"
           y="168.03816"
           style="fill:#ffffff;stroke:#273f4f;stroke-width:2"
           id="use395" />
        <use
           xlink:href="#m2cc3a12846"
           x="541.10834"
           y="159.29759"
           style="fill:#ffffff;stroke:#273f4f;stroke-width:2"
           id="use397" />
        <use
           xlink:href="#m2cc3a12846"
           x="560.8197"
           y="159.28891"
           style="fill:#ffffff;stroke:#273f4f;stroke-width:2"
           id="use399" />
        <use
           xlink:href="#m2cc3a12846"
           x="580.53107"
           y="159.28023"
           style="fill:#ffffff;stroke:#273f4f;stroke-width:2"
           id="use401" />
        <use
           xlink:href="#m2cc3a12846"
           x="600.24237"
           y="159.27155"
           style="fill:#ffffff;stroke:#273f4f;stroke-width:2"
           id="use403" />
        <use
           xlink:href="#m2cc3a12846"
           x="619.95374"
           y="159.18733"
           style="fill:#ffffff;stroke:#273f4f;stroke-width:2"
           id="use405" />
        <use
           xlink:href="#m2cc3a12846"
           x="639.6651"
           y="158.92688"
           style="fill:#ffffff;stroke:#273f4f;stroke-width:2"
           id="use407" />
        <use
           xlink:href="#m2cc3a12846"
           x="659.37646"
           y="158.66641"
           style="fill:#ffffff;stroke:#273f4f;stroke-width:2"
           id="use409" />
        <use
           xlink:href="#m2cc3a12846"
           x="679.08783"
           y="158.40596"
           style="fill:#ffffff;stroke:#273f4f;stroke-width:2"
           id="use411" />
        <use
           xlink:href="#m2cc3a12846"
           x="698.79913"
           y="158.14551"
           style="fill:#ffffff;stroke:#273f4f;stroke-width:2"
           id="use413" />
        <use
           xlink:href="#m2cc3a12846"
           x="718.5105"
           y="157.88504"
           style="fill:#ffffff;stroke:#273f4f;stroke-width:2"
           id="use415" />
        <use
           xlink:href="#m2cc3a12846"
           x="738.22186"
           y="157.62459"
           style="fill:#ffffff;stroke:#273f4f;stroke-width:2"
           id="use417" />
        <use
           xlink:href="#m2cc3a12846"
           x="757.93323"
           y="157.36414"
           style="fill:#ffffff;stroke:#273f4f;stroke-width:2"
           id="use419" />
        <use
           xlink:href="#m2cc3a12846"
           x="777.64453"
           y="157.10367"
           style="fill:#ffffff;stroke:#273f4f;stroke-width:2"
           id="use421" />
        <use
           xlink:href="#m2cc3a12846"
           x="797.3559"
           y="156.84322"
           style="fill:#ffffff;stroke:#273f4f;stroke-width:2"
           id="use423" />
        <use
           xlink:href="#m2cc3a12846"
           x="817.06726"
           y="156.58276"
           style="fill:#ffffff;stroke:#273f4f;stroke-width:2"
           id="use425" />
        <use
           xlink:href="#m2cc3a12846"
           x="836.77863"
           y="156.3223"
           style="fill:#ffffff;stroke:#273f4f;stroke-width:2"
           id="use427" />
        <use
           xlink:href="#m2cc3a12846"
           x="856.48993"
           y="156.06184"
           style="fill:#ffffff;stroke:#273f4f;stroke-width:2"
           id="use429" />
        <use
           xlink:href="#m2cc3a12846"
           x="876.20129"
           y="155.80139"
           style="fill:#ffffff;stroke:#273f4f;stroke-width:2"
           id="use431" />
        <use
           xlink:href="#m2cc3a12846"
           x="895.91266"
           y="155.54092"
           style="fill:#ffffff;stroke:#273f4f;stroke-width:2"
           id="use433" />
      </g>
    </g>
    <g
       id="patch_3">
      <path
         d="M 127.17,501.7464 V 67.6512"
         style="fill:none;stroke:#000000;stroke-width:2;stroke-linecap:square;stroke-linejoin:miter"
         id="path438" />
    </g>
    <g
       id="patch_4">
      <path
         d="M 915.624,501.7464 V 67.6512"
         style="fill:none;stroke:#000000;stroke-width:2;stroke-linecap:square;stroke-linejoin:miter"
         id="path441" />
    </g>
    <g
       id="patch_5">
      <path
         d="M 127.17,501.7464 H 915.624"
         style="fill:none;stroke:#000000;stroke-width:2;stroke-linecap:square;stroke-linejoin:miter"
         id="path444" />
    </g>
    <g
       id="patch_6">
      <path
         d="M 127.17,67.6512 H 915.624"
         style="fill:none;stroke:#000000;stroke-width:2;stroke-linecap:square;stroke-linejoin:miter"
         id="path447" />
    </g>
    <g
       id="legend_1">
      <g
         id="patch_7">
        <path
           d="m 826.749,101.66839 h 78.375 q 3,0 3,-3.000003 V 78.1512 q 0,-3 -3,-3 h -78.375 q -3,0 -3,3 v 20.517187 q 0,3.000003 3,3.000003 z"
           style="opacity:0.8;fill:#ffffff;stroke:#cccccc;stroke-linejoin:miter"
           id="path450" />
      </g>
      <g
         id="line2d_32">
        <path
           d="m 829.749,87.298856 h 15 15"
           style="fill:none;stroke:#1f77b4;stroke-width:3;stroke-linecap:square"
           id="path453" />
        <g
           id="g457">
          <use
             xlink:href="#m2cc3a12846"
             x="844.74902"
             y="87.298859"
             style="fill:#ffffff;stroke:#273f4f;stroke-width:2"
             id="use455" />
        </g>
      </g>
      <g
         id="text_18">
        <!-- PSO -->
        <g
           transform="matrix(0.15,0,0,-0.15,871.749,92.548856)"
           id="g470">
          <defs
             id="defs462">
            <path
               id="DejaVuSans-50"
               d="M 1259,4147 V 2394 h 794 q 441,0 681,228 241,228 241,650 0,419 -241,647 -240,228 -681,228 z m -631,519 h 1425 q 785,0 1186,-355 402,-355 402,-1039 0,-691 -402,-1044 -401,-353 -1186,-353 H 1259 V 0 H 628 Z"
               transform="scale(0.015625)" />
            <path
               id="DejaVuSans-4f"
               d="m 2522,4238 q -688,0 -1093,-513 -404,-512 -404,-1397 0,-881 404,-1394 405,-512 1093,-512 687,0 1089,512 402,513 402,1394 0,885 -402,1397 -402,513 -1089,513 z m 0,512 q 981,0 1568,-658 588,-658 588,-1764 0,-1103 -588,-1761 -587,-658 -1568,-658 -984,0 -1574,656 -589,657 -589,1763 0,1106 589,1764 590,658 1574,658 z"
               transform="scale(0.015625)" />
          </defs>
          <use
             xlink:href="#DejaVuSans-50"
             id="use464" />
          <use
             xlink:href="#DejaVuSans-53"
             x="60.302734"
             id="use466" />
          <use
             xlink:href="#DejaVuSans-4f"
             x="123.7793"
             id="use468" />
        </g>
      </g>
    </g>
  </g>
  <defs
     id="defs479">
    <clipPath
       id="p073e4e198a">
      <rect
         x="127.17"
         y="67.651199"
         width="788.45398"
         height="434.09521"
         id="rect476" />
    </clipPath>
  </defs>
</svg>
