<?xml version="1.0" encoding="utf-8"?>
<!-- Generator: Adobe Illustrator 28.1.0, SVG Export Plug-In . SVG Version: 6.00 Build 0)  -->
<svg version="1.1" id="图层_1" xmlns="http://www.w3.org/2000/svg" xmlns:xlink="http://www.w3.org/1999/xlink" x="0px" y="0px"
	 viewBox="0 0 449.45 463.22" style="enable-background:new 0 0 449.45 463.22;" xml:space="preserve">
<style type="text/css">
	.st0{fill:#F2F2F2;stroke:#000000;stroke-width:2;stroke-miterlimit:10;}
	.st1{fill:#E6E6E6;stroke:#000000;stroke-width:2;stroke-miterlimit:10;}
	.st2{fill:#ECECEC;stroke:#000000;stroke-width:2;stroke-miterlimit:10;}
	.st3{fill:none;stroke:#B0B0B0;stroke-width:0.8;stroke-linejoin:round;stroke-miterlimit:10;}
	.st4{fill:none;stroke:#000000;stroke-width:0.8;stroke-linecap:square;stroke-linejoin:round;stroke-miterlimit:10;}
	.st5{fill-rule:evenodd;clip-rule:evenodd;}
	.st6{fill:#FF9F00;stroke:#000000;stroke-width:2;stroke-linejoin:round;stroke-miterlimit:10;}
</style>
<g>
	<polyline class="st0" points="18.52,394.07 98.1,250.19 93.75,31.6 10.53,156.42 	"/>
	<polyline class="st1" points="98.1,250.19 406.84,276.07 413.58,53.98 93.75,31.6 	"/>
	<polyline class="st2" points="18.52,394.07 359.89,425.97 406.84,276.07 98.1,250.19 	"/>
	<path class="st3" d="M39.81,396.06l77.58-144.25L113.72,33 M108.59,402.49l71.1-145.46l-1.47-219.52 M177.97,408.97l64.51-146.68
		l0.78-220.23 M247.97,415.51l57.8-147.91l3.06-220.95 M318.59,422.11l50.97-149.16l5.37-221.67 M16.38,147.64l7.72,236.35
		l339.08,31.46 M31.91,124.35l7,232.86l333.02,30.3 M46.85,101.94l6.33,229.47l327.18,29.2 M61.24,80.35l5.7,226.17l321.54,28.16
		 M75.11,59.54l5.12,222.96l316.08,27.18 M88.49,39.48l4.57,219.83l310.81,26.25 M407.26,262.4L97.83,236.73l-79.8,142.76
		 M408.52,220.58L97.01,195.54L16.53,334.83 M409.81,178.18L96.18,153.8l-81.18,135.7 M411.11,135.2L95.34,111.5l-81.88,132
		 M412.44,91.62l-317.95-23L11.89,196.8"/>
	<path class="st4" d="M18.52,394.07l341.36,31.9 M40.5,394.78l-2.07,3.84"/>
	<path class="st5" d="M36.46,413.38c-0.51,0-0.89,0.25-1.15,0.75c-0.25,0.5-0.38,1.25-0.38,2.25c0,1,0.13,1.75,0.38,2.25
		c0.26,0.5,0.64,0.75,1.15,0.75c0.51,0,0.89-0.25,1.15-0.75c0.26-0.5,0.39-1.25,0.39-2.25c0-1-0.13-1.75-0.39-2.25
		C37.36,413.63,36.98,413.38,36.46,413.38 M36.46,412.6c0.82,0,1.44,0.32,1.87,0.97c0.43,0.64,0.65,1.58,0.65,2.81
		c0,1.23-0.21,2.16-0.65,2.81c-0.43,0.64-1.05,0.97-1.87,0.97c-0.82,0-1.44-0.32-1.88-0.97c-0.43-0.65-0.64-1.59-0.64-2.81
		c0-1.23,0.21-2.17,0.64-2.81C35.02,412.92,35.65,412.6,36.46,412.6L36.46,412.6z"/>
	<line class="st4" x1="109.22" y1="401.2" x2="107.33" y2="405.07"/>
	<path class="st5" d="M104.08,425.91h3.44v0.83h-4.63v-0.83c0.38-0.39,0.88-0.91,1.53-1.56c0.65-0.65,1.05-1.07,1.22-1.26
		c0.32-0.36,0.54-0.65,0.66-0.9c0.13-0.25,0.19-0.49,0.19-0.73c0-0.39-0.14-0.7-0.41-0.95c-0.27-0.24-0.62-0.37-1.06-0.37
		c-0.31,0-0.63,0.05-0.98,0.16c-0.34,0.11-0.71,0.27-1.1,0.49v-1c0.4-0.16,0.77-0.28,1.11-0.36c0.35-0.08,0.66-0.12,0.95-0.12
		c0.76,0,1.36,0.19,1.81,0.57c0.45,0.38,0.67,0.88,0.67,1.51c0,0.3-0.06,0.59-0.17,0.85c-0.11,0.27-0.31,0.58-0.61,0.95
		c-0.08,0.09-0.34,0.37-0.78,0.82C105.49,424.47,104.88,425.1,104.08,425.91L104.08,425.91z"/>
	<line class="st4" x1="178.55" y1="407.67" x2="176.83" y2="411.58"/>
	<path class="st5" d="M175.54,426.79l-2.49,3.89h2.49V426.79 M175.28,425.93h1.24v4.75h1.04v0.82h-1.04v1.72h-0.98v-1.72h-3.29
		v-0.95L175.28,425.93L175.28,425.93z"/>
	<line class="st4" x1="248.48" y1="414.2" x2="246.94" y2="418.14"/>
	<path class="st5" d="M245.38,435.9c-0.44,0-0.8,0.15-1.05,0.45c-0.26,0.3-0.39,0.72-0.39,1.25c0,0.52,0.13,0.94,0.39,1.25
		c0.26,0.3,0.61,0.45,1.05,0.45s0.79-0.15,1.05-0.45c0.26-0.31,0.39-0.72,0.39-1.25c0-0.53-0.13-0.94-0.39-1.25
		C246.18,436.05,245.83,435.9,245.38,435.9 M247.34,432.81v0.9c-0.25-0.12-0.5-0.21-0.75-0.27c-0.25-0.06-0.5-0.09-0.75-0.09
		c-0.65,0-1.15,0.22-1.49,0.66c-0.34,0.44-0.54,1.1-0.59,1.99c0.19-0.28,0.43-0.5,0.72-0.65c0.29-0.15,0.61-0.23,0.96-0.23
		c0.73,0,1.31,0.22,1.73,0.67c0.42,0.44,0.64,1.04,0.64,1.81c0,0.75-0.22,1.35-0.66,1.8s-1.03,0.68-1.77,0.68
		c-0.84,0-1.49-0.32-1.93-0.97c-0.44-0.65-0.67-1.59-0.67-2.81c0-1.15,0.27-2.07,0.82-2.75c0.55-0.69,1.28-1.03,2.2-1.03
		c0.25,0,0.5,0.02,0.75,0.07C246.81,432.64,247.07,432.71,247.34,432.81L247.34,432.81z"/>
	<line class="st4" x1="319.04" y1="420.78" x2="317.68" y2="424.77"/>
	<path class="st5" d="M316.06,443.2c-0.47,0-0.84,0.13-1.11,0.38s-0.4,0.6-0.4,1.04s0.13,0.79,0.4,1.04s0.64,0.38,1.11,0.38
		s0.84-0.13,1.11-0.38c0.27-0.25,0.41-0.6,0.41-1.04c0-0.44-0.14-0.79-0.41-1.04S316.54,443.2,316.06,443.2 M315.08,442.78
		c-0.42-0.1-0.75-0.3-0.99-0.59c-0.23-0.29-0.35-0.64-0.35-1.06c0-0.58,0.21-1.04,0.62-1.38s0.99-0.51,1.71-0.51
		c0.73,0,1.29,0.17,1.71,0.51s0.62,0.8,0.62,1.38c0,0.42-0.12,0.77-0.36,1.06c-0.23,0.29-0.56,0.49-0.98,0.59
		c0.47,0.11,0.84,0.33,1.11,0.65c0.27,0.32,0.4,0.72,0.4,1.18c0,0.71-0.21,1.25-0.65,1.63c-0.43,0.38-1.04,0.57-1.85,0.57
		s-1.42-0.19-1.86-0.57c-0.43-0.38-0.64-0.92-0.64-1.63c0-0.46,0.13-0.86,0.4-1.18S314.6,442.89,315.08,442.78 M314.71,441.22
		c0,0.38,0.12,0.67,0.35,0.88c0.24,0.21,0.57,0.32,1,0.32s0.75-0.11,0.99-0.32c0.24-0.21,0.36-0.51,0.36-0.88
		c0-0.38-0.12-0.67-0.36-0.88c-0.24-0.21-0.57-0.32-0.99-0.32s-0.76,0.11-1,0.32C314.83,440.54,314.71,440.84,314.71,441.22
		L314.71,441.22z"/>
	<path class="st5" d="M126.81,440.31c0.24,0.11,0.47,0.31,0.68,0.62c0.21,0.3,0.42,0.71,0.62,1.22l0.97,2.49l-1.27-0.12l-0.91-2.34
		c-0.23-0.61-0.48-1.02-0.73-1.24c-0.25-0.22-0.61-0.35-1.08-0.39l-1.28-0.12l-0.34,3.68l-1.18-0.11l0.81-8.71l2.66,0.25
		c1,0.09,1.72,0.37,2.17,0.83c0.45,0.46,0.64,1.11,0.56,1.95c-0.05,0.55-0.22,0.99-0.51,1.33C127.7,440,127.31,440.22,126.81,440.31
		 M124.2,436.38l-0.29,3.09l1.48,0.14c0.57,0.05,1.01-0.04,1.32-0.27c0.32-0.24,0.5-0.61,0.55-1.12c0.05-0.51-0.06-0.91-0.33-1.19
		c-0.26-0.29-0.68-0.46-1.25-0.51L124.2,436.38L124.2,436.38z"/>
	<path class="st5" d="M136.09,441.71l-0.05,0.53l-4.94-0.46c-0.02,0.75,0.15,1.33,0.51,1.75c0.37,0.42,0.9,0.67,1.61,0.73
		c0.41,0.04,0.82,0.02,1.21-0.04c0.4-0.06,0.8-0.18,1.2-0.35l-0.09,1.02c-0.4,0.13-0.81,0.21-1.22,0.26s-0.83,0.05-1.24,0.01
		c-1.04-0.1-1.84-0.48-2.39-1.14c-0.55-0.66-0.78-1.51-0.68-2.55c0.1-1.07,0.47-1.89,1.1-2.46c0.64-0.58,1.45-0.82,2.43-0.73
		c0.88,0.08,1.55,0.43,2,1.05C135.99,439.95,136.18,440.74,136.09,441.71 M135.04,441.29c0.05-0.59-0.08-1.07-0.36-1.45
		c-0.29-0.38-0.69-0.59-1.22-0.64c-0.6-0.06-1.1,0.07-1.49,0.37c-0.39,0.31-0.64,0.76-0.75,1.37L135.04,441.29L135.04,441.29z"/>
	<path class="st5" d="M142.19,440.3l0.33-3.54l1.07,0.1l-0.85,9.08l-1.07-0.1l0.09-0.98c-0.26,0.37-0.58,0.63-0.94,0.79
		c-0.36,0.15-0.78,0.21-1.26,0.16c-0.79-0.07-1.41-0.45-1.84-1.13c-0.44-0.68-0.6-1.53-0.51-2.55s0.42-1.83,0.97-2.42
		c0.55-0.58,1.23-0.84,2.02-0.76c0.48,0.05,0.88,0.18,1.21,0.4C141.74,439.58,142,439.89,142.19,440.3 M138.32,442.24
		c-0.07,0.79,0.03,1.43,0.31,1.91c0.28,0.48,0.71,0.74,1.28,0.8c0.57,0.05,1.04-0.13,1.4-0.55c0.37-0.42,0.59-1.03,0.66-1.82
		c0.07-0.79-0.03-1.42-0.32-1.9c-0.28-0.48-0.71-0.75-1.28-0.8c-0.57-0.05-1.04,0.13-1.41,0.55
		C138.61,440.85,138.39,441.45,138.32,442.24L138.32,442.24z"/>
	<path class="st5" d="M145.18,443.57l0.37-3.96l1.07,0.1l-0.37,3.91c-0.06,0.62,0.02,1.1,0.23,1.43c0.21,0.33,0.56,0.52,1.04,0.56
		c0.58,0.05,1.06-0.09,1.42-0.43c0.37-0.34,0.59-0.83,0.65-1.46l0.35-3.7l1.07,0.1l-0.61,6.53l-1.07-0.1l0.09-1
		c-0.3,0.37-0.63,0.64-0.99,0.8c-0.36,0.16-0.77,0.22-1.22,0.17c-0.75-0.07-1.3-0.36-1.64-0.86
		C145.22,445.17,145.1,444.47,145.18,443.57 M148.27,439.71L148.27,439.71L148.27,439.71z"/>
	<path class="st5" d="M158.02,441.04l-0.09,1c-0.29-0.2-0.58-0.35-0.88-0.46c-0.3-0.12-0.6-0.19-0.91-0.21
		c-0.69-0.06-1.26,0.11-1.68,0.51c-0.43,0.4-0.68,1-0.75,1.8c-0.07,0.8,0.06,1.44,0.4,1.92c0.34,0.47,0.87,0.75,1.56,0.81
		c0.31,0.03,0.62,0.02,0.93-0.04c0.32-0.06,0.63-0.15,0.95-0.29l-0.09,0.99c-0.31,0.11-0.64,0.19-0.96,0.23
		c-0.33,0.04-0.67,0.04-1.03,0.01c-0.99-0.09-1.74-0.47-2.26-1.15c-0.52-0.67-0.73-1.53-0.64-2.58c0.1-1.07,0.47-1.87,1.11-2.43
		c0.65-0.56,1.47-0.79,2.5-0.69c0.33,0.03,0.65,0.1,0.96,0.2C157.44,440.74,157.73,440.88,158.02,441.04L158.02,441.04z"/>
	<path class="st5" d="M161.06,439.07l-0.17,1.86l2.21,0.21l-0.08,0.83l-2.21-0.21l-0.33,3.55c-0.05,0.53-0.01,0.88,0.12,1.05
		c0.13,0.17,0.42,0.27,0.87,0.31l1.1,0.1l-0.08,0.9l-1.1-0.1c-0.83-0.08-1.39-0.28-1.67-0.62c-0.29-0.34-0.39-0.92-0.31-1.74
		l0.33-3.55l-0.79-0.07l0.08-0.83l0.79,0.07l0.17-1.86L161.06,439.07L161.06,439.07z"/>
	<path class="st5" d="M164.38,441.31l1.07,0.1l-0.61,6.53l-1.07-0.1L164.38,441.31 M164.62,438.77l1.07,0.1l-0.13,1.36l-1.07-0.1
		L164.62,438.77L164.62,438.77z"/>
	<path class="st5" d="M170.2,442.54c-0.58-0.05-1.05,0.13-1.43,0.55c-0.37,0.42-0.6,1.01-0.67,1.8c-0.07,0.78,0.03,1.42,0.32,1.9
		s0.73,0.75,1.31,0.8c0.57,0.05,1.05-0.13,1.42-0.55s0.6-1.02,0.67-1.8c0.07-0.78-0.04-1.4-0.33-1.88
		C171.21,442.86,170.77,442.59,170.2,442.54 M170.29,441.63c0.93,0.09,1.64,0.46,2.11,1.12s0.66,1.52,0.56,2.59
		c-0.1,1.07-0.45,1.88-1.03,2.45c-0.59,0.56-1.35,0.79-2.28,0.7c-0.94-0.09-1.65-0.46-2.12-1.12c-0.47-0.66-0.66-1.53-0.56-2.59
		c0.1-1.07,0.44-1.89,1.03-2.45C168.58,441.78,169.35,441.54,170.29,441.63L170.29,441.63z"/>
	<path class="st5" d="M180.37,445.37l-0.37,3.94l-1.07-0.1l0.37-3.91c0.06-0.62-0.02-1.09-0.23-1.42s-0.56-0.52-1.04-0.56
		c-0.58-0.05-1.06,0.09-1.42,0.43c-0.37,0.34-0.58,0.83-0.64,1.46l-0.35,3.69l-1.08-0.1l0.61-6.53l1.08,0.1l-0.09,1.02
		c0.29-0.37,0.62-0.64,0.99-0.8c0.37-0.16,0.78-0.22,1.23-0.18c0.75,0.07,1.3,0.36,1.64,0.86
		C180.33,443.76,180.45,444.46,180.37,445.37L180.37,445.37z"/>
	<path class="st5" d="M188.92,444.46c-0.58-0.05-1.05,0.13-1.43,0.55c-0.37,0.42-0.6,1.01-0.67,1.8c-0.07,0.78,0.03,1.42,0.32,1.9
		c0.29,0.48,0.73,0.75,1.31,0.8c0.57,0.05,1.05-0.13,1.42-0.55c0.37-0.42,0.6-1.02,0.67-1.8c0.07-0.78-0.04-1.4-0.33-1.88
		C189.93,444.78,189.49,444.51,188.92,444.46 M189.01,443.55c0.93,0.09,1.64,0.46,2.11,1.12c0.47,0.66,0.66,1.52,0.56,2.59
		c-0.1,1.07-0.45,1.88-1.03,2.45c-0.59,0.56-1.35,0.79-2.28,0.7c-0.94-0.09-1.65-0.46-2.12-1.12c-0.47-0.66-0.66-1.53-0.56-2.59
		c0.1-1.07,0.44-1.89,1.03-2.45C187.3,443.7,188.07,443.46,189.01,443.55L189.01,443.55z"/>
	<path class="st5" d="M197.45,441.95l-0.08,0.89l-1.03-0.1c-0.39-0.04-0.66,0.01-0.83,0.16c-0.16,0.14-0.26,0.42-0.3,0.82
		l-0.05,0.58l1.77,0.17l-0.08,0.83l-1.77-0.17l-0.53,5.7l-1.08-0.1l0.53-5.7l-1.03-0.1l0.08-0.83l1.03,0.1l0.04-0.46
		c0.07-0.73,0.29-1.24,0.66-1.54c0.37-0.3,0.92-0.42,1.66-0.35L197.45,441.95L197.45,441.95z"/>
	<polygon class="st5" points="200.86,442.62 208.23,443.31 208.14,444.31 205.05,444.02 204.32,451.73 203.14,451.62 203.86,443.91 
		200.77,443.62 200.86,442.62 	"/>
	<polygon class="st5" points="209.27,443.46 210.86,443.61 214.04,451.25 214.72,443.97 215.86,444.07 215.05,452.78 213.46,452.64 
		210.28,444.99 209.6,452.27 208.46,452.17 209.27,443.46 	"/>
	<path class="st5" d="M220.96,444.06c-0.6,0.84-1.08,1.69-1.41,2.55c-0.33,0.85-0.54,1.73-0.63,2.62s-0.04,1.8,0.13,2.71
		c0.17,0.9,0.48,1.82,0.91,2.76l-0.93-0.09c-0.5-0.97-0.85-1.91-1.06-2.82c-0.2-0.91-0.27-1.8-0.19-2.67s0.31-1.72,0.68-2.58
		c0.37-0.85,0.89-1.71,1.56-2.57L220.96,444.06L220.96,444.06z"/>
	<path class="st5" d="M230.01,450.24c-0.34-0.03-0.62,0.09-0.84,0.36c-0.22,0.27-0.35,0.66-0.4,1.18c-0.05,0.51,0.01,0.91,0.17,1.22
		c0.17,0.3,0.42,0.47,0.76,0.51c0.33,0.03,0.6-0.09,0.82-0.36c0.22-0.27,0.36-0.66,0.4-1.17c0.05-0.51-0.01-0.92-0.18-1.22
		C230.58,450.44,230.34,450.27,230.01,450.24 M230.08,449.5c0.61,0.06,1.08,0.32,1.4,0.78c0.32,0.46,0.45,1.05,0.38,1.78
		c-0.07,0.73-0.3,1.29-0.71,1.68c-0.4,0.39-0.91,0.56-1.52,0.5c-0.62-0.06-1.09-0.31-1.42-0.77s-0.45-1.05-0.38-1.78
		s0.3-1.29,0.7-1.68C228.95,449.61,229.46,449.44,230.08,449.5 M224.39,445.38c-0.33-0.03-0.61,0.09-0.83,0.36
		c-0.22,0.27-0.35,0.66-0.4,1.16c-0.05,0.51,0.01,0.92,0.17,1.23c0.17,0.3,0.41,0.47,0.75,0.51c0.34,0.03,0.61-0.09,0.83-0.36
		c0.22-0.27,0.36-0.66,0.4-1.17c0.05-0.5-0.02-0.91-0.18-1.22S224.72,445.41,224.39,445.38 M229.73,445.13l0.93,0.09l-6.29,8.53
		l-0.93-0.09L229.73,445.13 M224.46,444.64c0.61,0.06,1.08,0.32,1.41,0.78c0.33,0.46,0.46,1.05,0.39,1.78
		c-0.07,0.74-0.3,1.3-0.71,1.69c-0.4,0.39-0.91,0.56-1.53,0.5c-0.62-0.06-1.09-0.31-1.41-0.77c-0.32-0.46-0.44-1.06-0.37-1.79
		c0.07-0.72,0.3-1.28,0.7-1.68S223.85,444.58,224.46,444.64L224.46,444.64z"/>
	<path class="st5" d="M234.05,445.24l0.93,0.09c0.5,0.97,0.85,1.91,1.05,2.82c0.21,0.91,0.27,1.79,0.19,2.66s-0.31,1.74-0.68,2.59
		c-0.37,0.85-0.89,1.71-1.56,2.57l-0.93-0.09c0.6-0.84,1.07-1.69,1.4-2.55c0.34-0.86,0.55-1.74,0.63-2.64
		c0.08-0.9,0.04-1.8-0.14-2.7C234.79,447.11,234.48,446.18,234.05,445.24L234.05,445.24z"/>
	<path class="st4" d="M406.84,276.07l-46.96,149.9 M360.41,415.19l8.32,0.77"/>
	<path class="st5" d="M377.5,427.54c-0.51,0-0.89,0.25-1.15,0.75c-0.25,0.5-0.38,1.25-0.38,2.25c0,1,0.13,1.75,0.38,2.25
		c0.26,0.5,0.64,0.75,1.15,0.75c0.51,0,0.89-0.25,1.15-0.75c0.26-0.5,0.39-1.25,0.39-2.25c0-1-0.13-1.75-0.39-2.25
		C378.4,427.79,378.02,427.54,377.5,427.54 M377.5,426.76c0.82,0,1.44,0.32,1.87,0.97c0.43,0.64,0.65,1.58,0.65,2.81
		c0,1.23-0.21,2.16-0.65,2.81c-0.43,0.64-1.05,0.97-1.87,0.97s-1.44-0.32-1.88-0.97c-0.43-0.65-0.64-1.59-0.64-2.81
		c0-1.23,0.21-2.17,0.64-2.81C376.06,427.08,376.69,426.76,377.5,426.76L377.5,426.76z"/>
	<line class="st4" x1="369.21" y1="387.26" x2="377.38" y2="388.01"/>
	<polygon class="st5" points="384.2,405.27 385.82,405.27 385.82,399.71 384.06,400.06 384.06,399.16 385.81,398.81 386.79,398.81 
		386.79,405.27 388.4,405.27 388.4,406.1 384.2,406.1 384.2,405.27 	"/>
	<line class="st4" x1="377.69" y1="360.37" x2="385.71" y2="361.09"/>
	<path class="st5" d="M393.04,378.15h3.44v0.83h-4.63v-0.83c0.38-0.39,0.88-0.91,1.53-1.56c0.65-0.65,1.05-1.07,1.22-1.26
		c0.32-0.36,0.54-0.65,0.66-0.9c0.13-0.25,0.19-0.49,0.19-0.73c0-0.39-0.14-0.7-0.41-0.95c-0.27-0.24-0.62-0.37-1.06-0.37
		c-0.31,0-0.63,0.05-0.98,0.16c-0.34,0.11-0.71,0.27-1.1,0.49v-1c0.4-0.16,0.77-0.28,1.11-0.36s0.66-0.12,0.95-0.12
		c0.76,0,1.36,0.19,1.81,0.57s0.67,0.88,0.67,1.51c0,0.3-0.06,0.59-0.17,0.85s-0.31,0.58-0.61,0.95c-0.08,0.09-0.34,0.37-0.78,0.82
		C394.45,376.71,393.84,377.34,393.04,378.15L393.04,378.15z"/>
	<line class="st4" x1="385.86" y1="334.45" x2="393.73" y2="335.14"/>
	<path class="st5" d="M402.86,348.89c0.47,0.1,0.84,0.31,1.1,0.63c0.27,0.32,0.4,0.71,0.4,1.18c0,0.72-0.25,1.27-0.74,1.67
		s-1.2,0.59-2.11,0.59c-0.31,0-0.62-0.03-0.95-0.09c-0.32-0.06-0.65-0.15-1-0.27v-0.95c0.27,0.16,0.57,0.28,0.9,0.36
		c0.33,0.08,0.66,0.12,1.02,0.12c0.62,0,1.09-0.12,1.41-0.37c0.33-0.24,0.49-0.6,0.49-1.06c0-0.43-0.15-0.77-0.45-1.01
		c-0.3-0.24-0.72-0.37-1.25-0.37h-0.85v-0.81h0.89c0.48,0,0.85-0.1,1.11-0.29c0.26-0.2,0.39-0.47,0.39-0.84
		c0-0.38-0.13-0.66-0.4-0.86c-0.26-0.2-0.64-0.3-1.14-0.3c-0.27,0-0.56,0.03-0.87,0.09s-0.65,0.15-1.02,0.27v-0.88
		c0.38-0.1,0.72-0.18,1.05-0.23c0.33-0.05,0.64-0.08,0.93-0.08c0.75,0,1.34,0.17,1.78,0.51c0.43,0.34,0.65,0.8,0.65,1.38
		c0,0.41-0.12,0.75-0.35,1.03S403.29,348.78,402.86,348.89L402.86,348.89z"/>
	<line class="st4" x1="393.73" y1="309.46" x2="401.47" y2="310.12"/>
	<path class="st5" d="M410.26,321.19l-2.49,3.89h2.49V321.19 M410,320.33h1.24v4.75h1.04v0.82h-1.04v1.72h-0.98v-1.72h-3.29v-0.95
		L410,320.33L410,320.33z"/>
	<line class="st4" x1="401.34" y1="285.34" x2="408.95" y2="285.98"/>
	<path class="st5" d="M414.76,296.09h3.87v0.83h-2.97v1.79c0.14-0.05,0.29-0.08,0.43-0.11c0.14-0.02,0.29-0.04,0.43-0.04
		c0.82,0,1.46,0.22,1.93,0.67c0.47,0.44,0.71,1.05,0.71,1.81c0,0.79-0.24,1.4-0.73,1.83c-0.49,0.43-1.18,0.65-2.07,0.65
		c-0.31,0-0.62-0.02-0.94-0.08c-0.32-0.05-0.64-0.13-0.98-0.23v-0.99c0.29,0.16,0.6,0.28,0.91,0.36c0.31,0.08,0.64,0.12,0.99,0.12
		c0.56,0,1.01-0.15,1.34-0.44c0.33-0.3,0.49-0.7,0.49-1.21c0-0.51-0.17-0.91-0.49-1.21c-0.33-0.3-0.78-0.44-1.34-0.44
		c-0.26,0-0.53,0.03-0.79,0.09c-0.26,0.06-0.53,0.15-0.8,0.27V296.09L414.76,296.09z"/>
	<path class="st5" d="M404.02,405.27c0.16-0.22,0.4-0.4,0.74-0.55c0.34-0.15,0.78-0.28,1.32-0.37l2.63-0.48l-0.36,1.22l-2.47,0.44
		c-0.64,0.11-1.09,0.27-1.36,0.48c-0.26,0.2-0.46,0.53-0.59,0.98l-0.36,1.24l3.55,1.04l-0.33,1.14l-8.39-2.46l0.75-2.56
		c0.28-0.96,0.69-1.62,1.23-1.97c0.54-0.36,1.21-0.41,2.02-0.18c0.53,0.15,0.93,0.41,1.21,0.76
		C403.89,404.33,404.03,404.76,404.02,405.27 M399.66,407.08l2.98,0.87l0.42-1.43c0.16-0.55,0.16-1-0.01-1.35
		c-0.17-0.36-0.51-0.61-1-0.75c-0.49-0.14-0.9-0.11-1.23,0.1c-0.33,0.2-0.58,0.58-0.74,1.13L399.66,407.08L399.66,407.08z"/>
	<path class="st5" d="M407.21,396.58l0.51,0.15l-1.39,4.76c0.73,0.16,1.33,0.11,1.82-0.16c0.48-0.28,0.83-0.76,1.03-1.44
		c0.12-0.4,0.18-0.8,0.19-1.2c0.01-0.4-0.02-0.82-0.11-1.24l0.98,0.29c0.05,0.42,0.05,0.83,0.03,1.25
		c-0.03,0.41-0.11,0.82-0.22,1.22c-0.3,1.01-0.82,1.71-1.58,2.13c-0.76,0.41-1.63,0.47-2.63,0.18c-1.03-0.3-1.77-0.82-2.21-1.55
		c-0.44-0.73-0.53-1.58-0.25-2.52c0.25-0.85,0.72-1.44,1.41-1.77C405.47,396.34,406.28,396.31,407.21,396.58 M406.61,397.53
		c-0.57-0.16-1.07-0.13-1.5,0.08c-0.43,0.21-0.72,0.57-0.87,1.08c-0.17,0.58-0.14,1.09,0.08,1.53c0.23,0.44,0.63,0.78,1.2,1
		L406.61,397.53L406.61,397.53z"/>
	<path class="st5" d="M406.95,390.26l-3.41-1l0.3-1.03l8.75,2.57l-0.3,1.03l-0.94-0.28c0.31,0.33,0.51,0.69,0.6,1.07
		c0.08,0.38,0.06,0.8-0.08,1.27c-0.22,0.76-0.71,1.29-1.46,1.59c-0.75,0.3-1.62,0.3-2.6,0.01c-0.99-0.29-1.72-0.76-2.19-1.42
		c-0.47-0.66-0.59-1.37-0.37-2.13c0.14-0.47,0.34-0.83,0.62-1.11C406.15,390.56,406.51,390.37,406.95,390.26 M408.11,394.43
		c0.76,0.22,1.41,0.24,1.93,0.06c0.53-0.19,0.87-0.56,1.03-1.1c0.16-0.55,0.07-1.04-0.27-1.48c-0.34-0.44-0.9-0.78-1.66-1
		c-0.76-0.22-1.4-0.24-1.93-0.05c-0.53,0.19-0.87,0.56-1.03,1.1c-0.16,0.55-0.07,1.04,0.27,1.48
		C406.8,393.87,407.35,394.21,408.11,394.43L408.11,394.43z"/>
	<path class="st5" d="M410.83,388.1l-3.81-1.12l0.3-1.03l3.77,1.11c0.6,0.17,1.08,0.19,1.45,0.05c0.37-0.14,0.61-0.45,0.75-0.92
		c0.16-0.56,0.11-1.05-0.15-1.48c-0.26-0.43-0.7-0.74-1.31-0.92l-3.57-1.05l0.3-1.03l6.3,1.85l-0.3,1.03l-0.97-0.28
		c0.31,0.37,0.51,0.74,0.6,1.13c0.09,0.39,0.07,0.79-0.06,1.23c-0.21,0.73-0.6,1.2-1.16,1.45
		C412.4,388.37,411.69,388.36,410.83,388.1 M407.62,384.34L407.62,384.34L407.62,384.34z"/>
	<path class="st5" d="M410.64,374.94l0.97,0.28c-0.25,0.24-0.45,0.5-0.62,0.78c-0.17,0.27-0.3,0.55-0.38,0.85
		c-0.2,0.67-0.14,1.25,0.18,1.75c0.31,0.49,0.85,0.86,1.62,1.08c0.77,0.23,1.42,0.22,1.96-0.03c0.53-0.25,0.9-0.71,1.09-1.38
		c0.09-0.3,0.14-0.61,0.14-0.92c0-0.32-0.03-0.65-0.11-0.99l0.96,0.28c0.05,0.33,0.06,0.66,0.04,0.99
		c-0.02,0.33-0.09,0.67-0.19,1.01c-0.28,0.95-0.8,1.62-1.56,2c-0.76,0.38-1.65,0.43-2.66,0.13c-1.03-0.3-1.75-0.82-2.18-1.55
		c-0.42-0.74-0.49-1.6-0.2-2.58c0.09-0.32,0.22-0.62,0.37-0.9C410.24,375.45,410.43,375.19,410.64,374.94L410.64,374.94z"/>
	<path class="st5" d="M409.63,371.58l1.79,0.52l0.62-2.13l0.8,0.24l-0.62,2.13l3.42,1c0.51,0.15,0.86,0.18,1.05,0.08
		c0.19-0.1,0.34-0.36,0.47-0.8l0.31-1.06l0.87,0.25l-0.31,1.06c-0.23,0.8-0.54,1.31-0.93,1.52c-0.39,0.22-0.98,0.21-1.76-0.02
		l-3.42-1l-0.22,0.76l-0.8-0.24l0.22-0.76l-1.79-0.52L409.63,371.58L409.63,371.58z"/>
	<path class="st5" d="M412.23,368.54l0.3-1.03l6.3,1.85l-0.3,1.03L412.23,368.54 M409.78,367.82l0.3-1.03l1.31,0.38l-0.3,1.03
		L409.78,367.82L409.78,367.82z"/>
	<path class="st5" d="M414.81,363.17c-0.16,0.56-0.07,1.06,0.27,1.51c0.34,0.45,0.88,0.78,1.63,1c0.75,0.22,1.4,0.24,1.92,0.04
		c0.53-0.19,0.87-0.58,1.03-1.13c0.16-0.55,0.07-1.05-0.27-1.5c-0.34-0.45-0.89-0.79-1.63-1c-0.75-0.22-1.39-0.23-1.91-0.04
		C415.32,362.25,414.97,362.62,414.81,363.17 M413.94,362.92c0.26-0.9,0.76-1.52,1.5-1.86s1.62-0.36,2.65-0.06
		c1.03,0.3,1.76,0.8,2.2,1.48c0.43,0.68,0.52,1.48,0.26,2.38c-0.27,0.91-0.77,1.53-1.5,1.87c-0.74,0.34-1.62,0.35-2.65,0.05
		c-1.03-0.3-1.77-0.79-2.2-1.48C413.75,364.62,413.67,363.82,413.94,362.92L413.94,362.92z"/>
	<path class="st5" d="M419.44,353.9l3.8,1.11l-0.3,1.03l-3.77-1.1c-0.6-0.17-1.07-0.19-1.44-0.04c-0.37,0.14-0.61,0.45-0.75,0.92
		c-0.16,0.56-0.11,1.05,0.15,1.48c0.26,0.42,0.7,0.73,1.31,0.91l3.56,1.04l-0.31,1.04l-6.3-1.85l0.31-1.04l0.98,0.29
		c-0.3-0.36-0.51-0.73-0.59-1.12c-0.09-0.39-0.07-0.81,0.06-1.25c0.21-0.73,0.6-1.2,1.16-1.44
		C417.85,353.64,418.56,353.64,419.44,353.9L419.44,353.9z"/>
	<path class="st5" d="M420.01,345.31c-0.16,0.56-0.07,1.06,0.27,1.51c0.34,0.45,0.88,0.78,1.63,1c0.75,0.22,1.4,0.24,1.92,0.04
		c0.53-0.19,0.87-0.58,1.03-1.13c0.16-0.55,0.07-1.05-0.27-1.5c-0.34-0.45-0.89-0.79-1.63-1c-0.75-0.22-1.39-0.23-1.91-0.04
		C420.52,344.39,420.17,344.76,420.01,345.31 M419.13,345.06c0.26-0.9,0.76-1.52,1.5-1.86c0.73-0.34,1.62-0.36,2.65-0.06
		c1.03,0.3,1.76,0.8,2.2,1.48c0.43,0.68,0.52,1.48,0.26,2.38c-0.27,0.91-0.77,1.53-1.5,1.87c-0.74,0.34-1.62,0.35-2.65,0.05
		c-1.03-0.3-1.77-0.79-2.2-1.48C418.95,346.76,418.86,345.96,419.13,345.06L419.13,345.06z"/>
	<path class="st5" d="M419.08,336.4l0.86,0.25l-0.29,0.99c-0.11,0.37-0.11,0.65,0,0.84c0.11,0.19,0.36,0.34,0.75,0.45l0.56,0.16
		l0.5-1.7l0.8,0.24l-0.5,1.7l5.49,1.61l-0.31,1.04l-5.49-1.61l-0.29,0.99l-0.8-0.24l0.29-0.99l-0.44-0.13
		c-0.7-0.21-1.16-0.52-1.39-0.94c-0.22-0.42-0.24-0.99-0.03-1.69L419.08,336.4L419.08,336.4z"/>
	<polygon class="st5" points="420.43,333.09 422.51,325.98 423.46,326.26 422.59,329.24 430.03,331.43 429.7,332.57 422.26,330.39 
		421.38,333.37 420.43,333.09 	"/>
	<path class="st5" d="M424.07,324.06l3.15,0.92l0.42-1.43c0.15-0.53,0.14-0.98-0.05-1.35c-0.19-0.37-0.54-0.63-1.04-0.78
		c-0.5-0.15-0.93-0.11-1.29,0.09c-0.36,0.21-0.61,0.58-0.77,1.11L424.07,324.06 M422.8,324.92l0.75-2.56
		c0.28-0.94,0.7-1.59,1.27-1.94c0.56-0.36,1.26-0.42,2.08-0.18c0.83,0.24,1.39,0.67,1.67,1.28c0.28,0.6,0.29,1.38,0.01,2.32
		l-0.42,1.43l3.37,0.99l-0.33,1.14L422.8,324.92L422.8,324.92z"/>
	<path class="st5" d="M425.2,315.38c0.71,0.75,1.46,1.38,2.23,1.87c0.77,0.49,1.59,0.86,2.46,1.12c0.87,0.25,1.76,0.38,2.68,0.39
		c0.92,0,1.88-0.12,2.89-0.37l-0.26,0.9c-1.05,0.3-2.04,0.47-2.97,0.5c-0.93,0.03-1.82-0.08-2.66-0.33
		c-0.84-0.25-1.63-0.63-2.4-1.16c-0.77-0.52-1.51-1.2-2.23-2.03L425.2,315.38L425.2,315.38z"/>
	<path class="st5" d="M433.02,307.72c-0.1,0.33-0.03,0.63,0.19,0.89c0.22,0.27,0.58,0.47,1.08,0.62c0.49,0.14,0.9,0.17,1.23,0.06
		c0.33-0.1,0.55-0.32,0.64-0.65c0.09-0.32,0.03-0.61-0.2-0.88c-0.23-0.27-0.58-0.48-1.07-0.62s-0.91-0.16-1.24-0.06
		C433.32,307.19,433.11,307.39,433.02,307.72 M432.3,307.51c0.17-0.59,0.52-1,1.03-1.23s1.12-0.24,1.82-0.03
		c0.7,0.21,1.21,0.54,1.51,1.02c0.31,0.47,0.37,0.99,0.2,1.59c-0.18,0.6-0.52,1.01-1.03,1.24c-0.51,0.23-1.12,0.24-1.82,0.03
		c-0.7-0.21-1.21-0.54-1.52-1.01C432.2,308.64,432.13,308.1,432.3,307.51 M427.18,312.3c-0.09,0.32-0.03,0.62,0.2,0.89
		c0.22,0.27,0.58,0.47,1.07,0.61c0.49,0.15,0.91,0.17,1.24,0.06c0.33-0.1,0.54-0.32,0.64-0.64c0.1-0.33,0.03-0.62-0.19-0.89
		c-0.22-0.27-0.58-0.48-1.08-0.62c-0.48-0.14-0.89-0.16-1.23-0.06S427.27,311.98,427.18,312.3 M427.95,307.02l0.26-0.9l7.17,7.81
		l-0.26,0.9L427.95,307.02 M426.46,312.09c0.17-0.59,0.52-1,1.03-1.24c0.51-0.23,1.12-0.25,1.82-0.04c0.71,0.21,1.21,0.55,1.52,1.02
		c0.31,0.47,0.37,1,0.2,1.6c-0.17,0.6-0.52,1.01-1.03,1.24c-0.51,0.22-1.12,0.23-1.83,0.03c-0.7-0.2-1.2-0.54-1.51-1.01
		S426.29,312.69,426.46,312.09L426.46,312.09z"/>
	<path class="st5" d="M428.95,302.83l0.26-0.9c1.05-0.3,2.04-0.47,2.97-0.5c0.93-0.03,1.81,0.07,2.65,0.32s1.65,0.64,2.41,1.17
		c0.77,0.52,1.51,1.2,2.23,2.02l-0.26,0.9c-0.71-0.75-1.45-1.37-2.23-1.86c-0.78-0.5-1.6-0.87-2.47-1.13
		c-0.87-0.25-1.76-0.38-2.67-0.38C430.92,302.46,429.96,302.58,428.95,302.83L428.95,302.83z"/>
	<path class="st4" d="M406.84,276.07l6.74-222.09 M404.73,262.19l7.57,0.63"/>
	<path class="st5" d="M422.38,258.82c-0.51,0-0.89,0.25-1.15,0.75c-0.25,0.5-0.38,1.25-0.38,2.25s0.13,1.75,0.38,2.25
		c0.26,0.5,0.64,0.75,1.15,0.75c0.51,0,0.89-0.25,1.15-0.75c0.26-0.5,0.39-1.25,0.39-2.25s-0.13-1.75-0.39-2.25
		C423.28,259.07,422.9,258.82,422.38,258.82 M422.38,258.04c0.82,0,1.44,0.32,1.87,0.97c0.43,0.64,0.65,1.58,0.65,2.81
		c0,1.23-0.21,2.16-0.65,2.81c-0.43,0.64-1.05,0.97-1.87,0.97s-1.44-0.32-1.88-0.97c-0.43-0.65-0.64-1.59-0.64-2.81
		c0-1.23,0.21-2.17,0.64-2.81C420.94,258.36,421.57,258.04,422.38,258.04L422.38,258.04z"/>
	<line class="st4" x1="405.98" y1="220.37" x2="413.61" y2="220.99"/>
	<path class="st5" d="M422.32,222.87h3.44v0.83h-4.63v-0.83c0.38-0.39,0.88-0.91,1.53-1.56c0.65-0.65,1.05-1.07,1.22-1.26
		c0.32-0.36,0.54-0.65,0.66-0.9c0.13-0.25,0.19-0.49,0.19-0.73c0-0.39-0.14-0.7-0.41-0.95c-0.27-0.24-0.62-0.37-1.06-0.37
		c-0.31,0-0.63,0.05-0.98,0.16c-0.34,0.11-0.71,0.27-1.1,0.49v-1c0.4-0.16,0.77-0.28,1.11-0.36s0.66-0.12,0.95-0.12
		c0.76,0,1.36,0.19,1.81,0.57s0.67,0.88,0.67,1.51c0,0.3-0.06,0.59-0.17,0.85s-0.31,0.58-0.61,0.95c-0.08,0.09-0.34,0.37-0.78,0.82
		C423.73,221.43,423.12,222.06,422.32,222.87L422.32,222.87z"/>
	<line class="st4" x1="407.25" y1="177.98" x2="414.93" y2="178.58"/>
	<path class="st5" d="M425.62,175.03l-2.49,3.89h2.49V175.03 M425.36,174.17h1.24v4.75h1.04v0.82h-1.04v1.72h-0.98v-1.72h-3.29
		v-0.95L425.36,174.17L425.36,174.17z"/>
	<line class="st4" x1="408.54" y1="135.01" x2="416.27" y2="135.59"/>
	<path class="st5" d="M426.58,134.46c-0.44,0-0.8,0.15-1.05,0.45s-0.39,0.72-0.39,1.25c0,0.52,0.13,0.94,0.39,1.25
		c0.26,0.3,0.61,0.45,1.05,0.45s0.79-0.15,1.05-0.45c0.26-0.31,0.39-0.72,0.39-1.25c0-0.53-0.13-0.94-0.39-1.25
		S427.03,134.46,426.58,134.46 M428.54,131.37v0.9c-0.25-0.12-0.5-0.21-0.75-0.27c-0.25-0.06-0.5-0.09-0.75-0.09
		c-0.65,0-1.15,0.22-1.49,0.66c-0.34,0.44-0.54,1.1-0.59,1.99c0.19-0.28,0.43-0.5,0.72-0.65s0.61-0.23,0.96-0.23
		c0.73,0,1.31,0.22,1.73,0.67s0.64,1.04,0.64,1.81c0,0.75-0.22,1.35-0.66,1.8s-1.03,0.68-1.77,0.68c-0.84,0-1.49-0.32-1.93-0.97
		c-0.44-0.65-0.67-1.59-0.67-2.81c0-1.15,0.27-2.07,0.82-2.75c0.55-0.69,1.28-1.03,2.2-1.03c0.25,0,0.5,0.02,0.75,0.07
		C428.01,131.2,428.27,131.27,428.54,131.37L428.54,131.37z"/>
	<line class="st4" x1="409.84" y1="91.43" x2="417.63" y2="91.99"/>
	<path class="st5" d="M427.9,91.6c-0.47,0-0.84,0.13-1.11,0.38s-0.4,0.6-0.4,1.04s0.13,0.79,0.4,1.04s0.64,0.38,1.11,0.38
		s0.84-0.13,1.11-0.38c0.27-0.25,0.41-0.6,0.41-1.04c0-0.44-0.14-0.79-0.41-1.04S428.38,91.6,427.9,91.6 M426.92,91.18
		c-0.42-0.1-0.75-0.3-0.99-0.59c-0.23-0.29-0.35-0.64-0.35-1.06c0-0.58,0.21-1.04,0.62-1.38s0.99-0.51,1.71-0.51
		c0.73,0,1.29,0.17,1.71,0.51s0.62,0.8,0.62,1.38c0,0.42-0.12,0.77-0.36,1.06c-0.23,0.29-0.56,0.49-0.98,0.59
		c0.47,0.11,0.84,0.33,1.11,0.65c0.27,0.32,0.4,0.72,0.4,1.18c0,0.71-0.21,1.25-0.65,1.63c-0.43,0.38-1.04,0.57-1.85,0.57
		s-1.42-0.19-1.86-0.57c-0.43-0.38-0.64-0.92-0.64-1.63c0-0.46,0.13-0.86,0.4-1.18S426.44,91.29,426.92,91.18 M426.55,89.62
		c0,0.38,0.12,0.67,0.35,0.88c0.24,0.21,0.57,0.32,1,0.32s0.75-0.11,0.99-0.32s0.36-0.51,0.36-0.88s-0.12-0.67-0.36-0.88
		s-0.57-0.32-0.99-0.32s-0.76,0.11-1,0.32C426.67,88.94,426.55,89.24,426.55,89.62L426.55,89.62z"/>
	<polygon class="st5" points="443.45,185.12 443.5,183.51 437.94,183.34 438.24,185.1 437.34,185.08 437.04,183.32 437.07,182.34 
		443.53,182.53 443.58,180.92 444.41,180.95 444.28,185.14 443.45,185.12 	"/>
	<path class="st5" d="M441.7,174.2l0.44,0.01l-0.13,4.13c0.62-0.02,1.1-0.19,1.43-0.51c0.33-0.33,0.51-0.79,0.53-1.38
		c0.01-0.35-0.02-0.68-0.1-1c-0.07-0.33-0.19-0.66-0.35-0.98l0.85,0.03c0.13,0.33,0.22,0.66,0.28,1c0.06,0.34,0.09,0.69,0.08,1.03
		c-0.03,0.87-0.3,1.55-0.82,2.05c-0.52,0.49-1.22,0.73-2.08,0.7c-0.89-0.03-1.6-0.29-2.11-0.79c-0.51-0.5-0.76-1.16-0.73-1.98
		c0.02-0.74,0.28-1.31,0.77-1.72C440.24,174.37,440.88,174.17,441.7,174.2 M441.41,175.09c-0.49-0.01-0.89,0.12-1.19,0.38
		s-0.46,0.61-0.47,1.05c-0.02,0.5,0.11,0.91,0.39,1.22c0.27,0.31,0.67,0.49,1.18,0.55L441.41,175.09L441.41,175.09z"/>
	<path class="st5" d="M440.79,170.48c-0.01,0.44,0.13,0.8,0.42,1.07c0.29,0.27,0.71,0.41,1.23,0.42c0.52,0.02,0.94-0.1,1.26-0.35
		c0.31-0.25,0.47-0.6,0.49-1.04c0.01-0.44-0.13-0.8-0.42-1.06c-0.3-0.27-0.71-0.41-1.23-0.43c-0.53-0.02-0.95,0.1-1.26,0.35
		C440.96,169.7,440.8,170.04,440.79,170.48 M437.76,168.43l0.9,0.03c-0.12,0.25-0.22,0.49-0.29,0.74c-0.07,0.25-0.11,0.49-0.12,0.74
		c-0.02,0.65,0.18,1.15,0.61,1.51c0.43,0.35,1.09,0.57,1.97,0.65c-0.28-0.2-0.48-0.45-0.63-0.74c-0.14-0.29-0.21-0.62-0.2-0.96
		c0.02-0.73,0.26-1.3,0.72-1.71c0.46-0.41,1.06-0.61,1.83-0.58c0.75,0.02,1.34,0.26,1.78,0.72c0.44,0.46,0.65,1.05,0.62,1.79
		c-0.03,0.84-0.37,1.48-1.03,1.9c-0.66,0.42-1.61,0.62-2.83,0.58c-1.15-0.03-2.06-0.34-2.73-0.9c-0.67-0.57-0.99-1.31-0.96-2.23
		c0.01-0.25,0.04-0.5,0.1-0.74C437.57,168.96,437.65,168.7,437.76,168.43L437.76,168.43z"/>
	<path class="st5" d="M435.63,224.48l1.25,0.04c-0.38,0.39-0.68,0.81-0.87,1.25c-0.2,0.45-0.3,0.92-0.32,1.43
		c-0.03,1,0.25,1.77,0.85,2.32c0.59,0.55,1.47,0.84,2.62,0.88c1.15,0.04,2.04-0.2,2.67-0.72c0.63-0.51,0.95-1.27,0.98-2.27
		c0.02-0.51-0.06-0.99-0.23-1.44s-0.44-0.89-0.79-1.3l1.24,0.04c0.27,0.42,0.47,0.87,0.59,1.34s0.18,0.96,0.17,1.47
		c-0.04,1.32-0.48,2.35-1.31,3.09c-0.84,0.74-1.96,1.08-3.36,1.04c-1.41-0.04-2.5-0.46-3.29-1.24c-0.79-0.79-1.16-1.84-1.12-3.16
		c0.02-0.52,0.1-1.01,0.26-1.47C435.12,225.3,435.34,224.87,435.63,224.48L435.63,224.48z"/>
	<path class="st5" d="M438.01,220.2c-0.02,0.58,0.2,1.04,0.64,1.39s1.05,0.54,1.84,0.56s1.41-0.12,1.87-0.44
		c0.46-0.32,0.7-0.78,0.72-1.36c0.02-0.57-0.2-1.04-0.64-1.39c-0.44-0.35-1.06-0.54-1.84-0.56c-0.78-0.02-1.4,0.13-1.86,0.45
		C438.27,219.17,438.03,219.62,438.01,220.2 M437.1,220.17c0.03-0.94,0.36-1.67,0.98-2.18c0.63-0.51,1.48-0.76,2.55-0.73
		c1.07,0.03,1.91,0.33,2.51,0.88c0.59,0.55,0.88,1.3,0.85,2.24c-0.03,0.94-0.36,1.67-0.98,2.19c-0.63,0.51-1.48,0.75-2.55,0.72
		c-1.08-0.03-1.91-0.32-2.51-0.87S437.07,221.11,437.1,220.17L437.1,220.17z"/>
	<path class="st5" d="M437.74,211.34l1.02,0.03c-0.17,0.3-0.29,0.61-0.38,0.94c-0.09,0.33-0.14,0.66-0.15,1.02
		c-0.02,0.53,0.05,0.94,0.21,1.21c0.16,0.27,0.4,0.41,0.73,0.42c0.25,0.01,0.45-0.08,0.6-0.27c0.15-0.19,0.29-0.57,0.44-1.14
		l0.09-0.37c0.19-0.76,0.44-1.29,0.75-1.61c0.31-0.31,0.73-0.46,1.26-0.45c0.61,0.02,1.08,0.27,1.42,0.77c0.34,0.49,0.5,1.16,0.47,2
		c-0.01,0.35-0.06,0.72-0.14,1.1c-0.08,0.38-0.19,0.77-0.34,1.19l-1.11-0.03c0.22-0.39,0.39-0.78,0.5-1.16
		c0.11-0.38,0.18-0.76,0.19-1.14c0.02-0.51-0.06-0.9-0.22-1.18c-0.17-0.28-0.41-0.42-0.73-0.43c-0.29-0.01-0.52,0.08-0.68,0.28
		c-0.16,0.19-0.32,0.62-0.49,1.28l-0.1,0.37c-0.16,0.66-0.39,1.14-0.69,1.43c-0.3,0.29-0.7,0.42-1.21,0.41
		c-0.61-0.02-1.09-0.25-1.41-0.7c-0.32-0.45-0.47-1.08-0.45-1.88c0.01-0.4,0.05-0.77,0.12-1.12
		C437.52,211.95,437.61,211.63,437.74,211.34L437.74,211.34z"/>
	<path class="st5" d="M435.59,208.15l1.86,0.06l0.07-2.22l0.84,0.03l-0.07,2.22l3.56,0.11c0.53,0.02,0.88-0.04,1.04-0.19
		c0.16-0.14,0.24-0.44,0.26-0.89l0.03-1.11l0.9,0.03l-0.03,1.11c-0.03,0.83-0.19,1.4-0.51,1.71c-0.32,0.31-0.89,0.45-1.71,0.42
		l-3.56-0.11l-0.02,0.79l-0.84-0.03l0.02-0.79l-1.86-0.06L435.59,208.15L435.59,208.15z"/>
	<path class="st5" d="M437.98,200.3l1.02,0.03c-0.17,0.3-0.29,0.61-0.38,0.94c-0.09,0.33-0.14,0.66-0.15,1.02
		c-0.02,0.53,0.05,0.94,0.21,1.21c0.16,0.27,0.4,0.41,0.73,0.42c0.25,0.01,0.45-0.08,0.6-0.27c0.15-0.19,0.29-0.57,0.44-1.14
		l0.09-0.37c0.19-0.76,0.44-1.29,0.75-1.61c0.31-0.31,0.73-0.46,1.26-0.45c0.61,0.02,1.08,0.27,1.42,0.77c0.34,0.49,0.5,1.16,0.47,2
		c-0.01,0.35-0.06,0.72-0.14,1.1c-0.08,0.38-0.19,0.77-0.34,1.19l-1.11-0.03c0.22-0.39,0.39-0.78,0.5-1.16
		c0.11-0.38,0.18-0.76,0.19-1.14c0.02-0.51-0.06-0.9-0.22-1.18c-0.17-0.28-0.41-0.42-0.73-0.43c-0.29-0.01-0.52,0.08-0.68,0.28
		c-0.16,0.19-0.32,0.62-0.49,1.28l-0.1,0.37c-0.16,0.66-0.39,1.14-0.69,1.43c-0.3,0.29-0.7,0.42-1.21,0.41
		c-0.61-0.02-1.09-0.25-1.41-0.7c-0.32-0.45-0.47-1.08-0.45-1.88c0.01-0.4,0.05-0.77,0.12-1.12
		C437.76,200.91,437.85,200.59,437.98,200.3L437.98,200.3z"/>
	<path class="st6" d="M368.26,266.92c1.19,0,2.32-0.47,3.16-1.31c0.84-0.84,1.31-1.98,1.31-3.16c0-1.19-0.47-2.32-1.31-3.16
		s-1.98-1.31-3.16-1.31s-2.32,0.47-3.16,1.31s-1.31,1.98-1.31,3.16c0,1.19,0.47,2.32,1.31,3.16
		C365.94,266.45,367.07,266.92,368.26,266.92L368.26,266.92z"/>
	<path class="st6" d="M371.4,271.2c1.19,0,2.32-0.47,3.16-1.31c0.84-0.84,1.31-1.98,1.31-3.16c0-1.19-0.47-2.32-1.31-3.16
		c-0.84-0.84-1.98-1.31-3.16-1.31s-2.32,0.47-3.16,1.31c-0.84,0.84-1.31,1.98-1.31,3.16c0,1.19,0.47,2.32,1.31,3.16
		C369.08,270.73,370.21,271.2,371.4,271.2L371.4,271.2z"/>
	<path class="st6" d="M370.34,261.49c1.19,0,2.32-0.47,3.16-1.31c0.84-0.84,1.31-1.98,1.31-3.16c0-1.19-0.47-2.32-1.31-3.16
		c-0.84-0.84-1.98-1.31-3.16-1.31c-1.19,0-2.32,0.47-3.16,1.31s-1.31,1.98-1.31,3.16c0,1.19,0.47,2.32,1.31,3.16
		C368.01,261.02,369.15,261.49,370.34,261.49L370.34,261.49z"/>
	<path class="st6" d="M377.67,256.35c1.19,0,2.32-0.47,3.16-1.31c0.84-0.84,1.31-1.98,1.31-3.16c0-1.19-0.47-2.32-1.31-3.16
		c-0.84-0.84-1.98-1.31-3.16-1.31c-1.19,0-2.32,0.47-3.16,1.31c-0.84,0.84-1.31,1.98-1.31,3.16c0,1.19,0.47,2.32,1.31,3.16
		C375.35,255.88,376.49,256.35,377.67,256.35L377.67,256.35z"/>
	<path class="st6" d="M333.94,279.1c1.19,0,2.32-0.47,3.16-1.31c0.84-0.84,1.31-1.98,1.31-3.16c0-1.19-0.47-2.32-1.31-3.16
		c-0.84-0.84-1.98-1.31-3.16-1.31s-2.32,0.47-3.16,1.31c-0.84,0.84-1.31,1.98-1.31,3.16c0,1.19,0.47,2.32,1.31,3.16
		S332.76,279.1,333.94,279.1L333.94,279.1z"/>
	<path class="st6" d="M378,245.83c1.19,0,2.32-0.47,3.16-1.31c0.84-0.84,1.31-1.98,1.31-3.16s-0.47-2.32-1.31-3.16
		c-0.84-0.84-1.98-1.31-3.16-1.31s-2.32,0.47-3.16,1.31c-0.84,0.84-1.31,1.98-1.31,3.16s0.47,2.32,1.31,3.16
		C375.67,245.36,376.81,245.83,378,245.83L378,245.83z"/>
	<path class="st6" d="M383.46,245.19c1.19,0,2.32-0.47,3.16-1.31c0.84-0.84,1.31-1.98,1.31-3.16s-0.47-2.32-1.31-3.16
		c-0.84-0.84-1.98-1.31-3.16-1.31s-2.32,0.47-3.16,1.31c-0.84,0.84-1.31,1.98-1.31,3.16s0.47,2.32,1.31,3.16
		C381.14,244.72,382.27,245.19,383.46,245.19L383.46,245.19z"/>
	<path class="st6" d="M372.14,280.04c1.19,0,2.32-0.47,3.16-1.31c0.84-0.84,1.31-1.98,1.31-3.16c0-1.19-0.47-2.32-1.31-3.16
		s-1.98-1.31-3.16-1.31c-1.19,0-2.32,0.47-3.16,1.31c-0.84,0.84-1.31,1.98-1.31,3.16c0,1.19,0.47,2.32,1.31,3.16
		C369.82,279.57,370.96,280.04,372.14,280.04L372.14,280.04z"/>
	<path class="st6" d="M380.85,229.04c1.19,0,2.32-0.47,3.16-1.31c0.84-0.84,1.31-1.98,1.31-3.16c0-1.19-0.47-2.32-1.31-3.16
		c-0.84-0.84-1.98-1.31-3.16-1.31s-2.32,0.47-3.16,1.31c-0.84,0.84-1.31,1.98-1.31,3.16c0,1.19,0.47,2.32,1.31,3.16
		C378.52,228.57,379.66,229.04,380.85,229.04L380.85,229.04z"/>
	<path class="st6" d="M384.73,226.76c1.19,0,2.32-0.47,3.16-1.31c0.84-0.84,1.31-1.98,1.31-3.16s-0.47-2.32-1.31-3.16
		c-0.84-0.84-1.98-1.31-3.16-1.31c-1.19,0-2.32,0.47-3.16,1.31s-1.31,1.98-1.31,3.16s0.47,2.32,1.31,3.16
		S383.54,226.76,384.73,226.76L384.73,226.76z"/>
	<path class="st6" d="M385.29,217.16c1.19,0,2.32-0.47,3.16-1.31s1.31-1.98,1.31-3.16s-0.47-2.32-1.31-3.16
		c-0.84-0.84-1.98-1.31-3.16-1.31s-2.32,0.47-3.16,1.31c-0.84,0.84-1.31,1.98-1.31,3.16s0.47,2.32,1.31,3.16
		S384.11,217.16,385.29,217.16L385.29,217.16z"/>
	<path class="st6" d="M382.56,208.91c1.19,0,2.32-0.47,3.16-1.31c0.84-0.84,1.31-1.98,1.31-3.16s-0.47-2.32-1.31-3.16
		c-0.84-0.84-1.98-1.31-3.16-1.31s-2.32,0.47-3.16,1.31c-0.84,0.84-1.31,1.98-1.31,3.16s0.47,2.32,1.31,3.16
		C380.23,208.44,381.37,208.91,382.56,208.91L382.56,208.91z"/>
	<path class="st6" d="M280.14,288.04c1.19,0,2.32-0.47,3.16-1.31s1.31-1.98,1.31-3.16c0-1.19-0.47-2.32-1.31-3.16
		s-1.98-1.31-3.16-1.31c-1.19,0-2.32,0.47-3.16,1.31s-1.31,1.98-1.31,3.16c0,1.19,0.47,2.32,1.31,3.16S278.95,288.04,280.14,288.04
		L280.14,288.04z"/>
	<path class="st6" d="M384.66,199.87c1.19,0,2.32-0.47,3.16-1.31c0.84-0.84,1.31-1.98,1.31-3.16s-0.47-2.32-1.31-3.16
		c-0.84-0.84-1.98-1.31-3.16-1.31c-1.19,0-2.32,0.47-3.16,1.31c-0.84,0.84-1.31,1.98-1.31,3.16s0.47,2.32,1.31,3.16
		C382.33,199.4,383.47,199.87,384.66,199.87L384.66,199.87z"/>
	<path class="st6" d="M264.73,289.86c1.19,0,2.32-0.47,3.16-1.31c0.84-0.84,1.31-1.98,1.31-3.16s-0.47-2.32-1.31-3.16
		c-0.84-0.84-1.98-1.31-3.16-1.31c-1.19,0-2.32,0.47-3.16,1.31c-0.84,0.84-1.31,1.98-1.31,3.16s0.47,2.32,1.31,3.16
		C262.4,289.38,263.54,289.86,264.73,289.86L264.73,289.86z"/>
	<path class="st6" d="M385.88,198.74c1.19,0,2.32-0.47,3.16-1.31c0.84-0.84,1.31-1.98,1.31-3.16c0-1.19-0.47-2.32-1.31-3.16
		c-0.84-0.84-1.98-1.31-3.16-1.31s-2.32,0.47-3.16,1.31c-0.84,0.84-1.31,1.98-1.31,3.16c0,1.19,0.47,2.32,1.31,3.16
		C383.56,198.27,384.7,198.74,385.88,198.74L385.88,198.74z"/>
	<path class="st6" d="M385.95,154.68c1.19,0,2.32-0.47,3.16-1.31c0.84-0.84,1.31-1.98,1.31-3.16c0-1.19-0.47-2.32-1.31-3.16
		c-0.84-0.84-1.98-1.31-3.16-1.31c-1.19,0-2.32,0.47-3.16,1.31c-0.84,0.84-1.31,1.98-1.31,3.16c0,1.19,0.47,2.32,1.31,3.16
		C383.63,154.21,384.76,154.68,385.95,154.68L385.95,154.68z"/>
	<path class="st6" d="M313.81,301.29c1.19,0,2.32-0.47,3.16-1.31c0.84-0.84,1.31-1.98,1.31-3.16s-0.47-2.32-1.31-3.16
		c-0.84-0.84-1.98-1.31-3.16-1.31c-1.19,0-2.32,0.47-3.16,1.31c-0.84,0.84-1.31,1.98-1.31,3.16s0.47,2.32,1.31,3.16
		C311.49,300.82,312.63,301.29,313.81,301.29L313.81,301.29z"/>
	<path class="st6" d="M340.39,301.37c1.19,0,2.32-0.47,3.16-1.31c0.84-0.84,1.31-1.98,1.31-3.16s-0.47-2.32-1.31-3.16
		c-0.84-0.84-1.98-1.31-3.16-1.31c-1.19,0-2.32,0.47-3.16,1.31c-0.84,0.84-1.31,1.98-1.31,3.16s0.47,2.32,1.31,3.16
		C338.07,300.89,339.2,301.37,340.39,301.37L340.39,301.37z"/>
	<path class="st6" d="M387.43,144.64c1.19,0,2.32-0.47,3.16-1.31c0.84-0.84,1.31-1.98,1.31-3.16c0-1.19-0.47-2.32-1.31-3.16
		c-0.84-0.84-1.98-1.31-3.16-1.31s-2.32,0.47-3.16,1.31c-0.84,0.84-1.31,1.98-1.31,3.16c0,1.19,0.47,2.32,1.31,3.16
		C385.1,144.17,386.24,144.64,387.43,144.64L387.43,144.64z"/>
	<path class="st6" d="M347.46,301.79c1.19,0,2.32-0.47,3.16-1.31c0.84-0.84,1.31-1.98,1.31-3.16c0-1.19-0.47-2.32-1.31-3.16
		c-0.84-0.84-1.98-1.31-3.16-1.31c-1.19,0-2.32,0.47-3.16,1.31s-1.31,1.98-1.31,3.16c0,1.19,0.47,2.32,1.31,3.16
		C345.14,301.32,346.27,301.79,347.46,301.79L347.46,301.79z"/>
	<path class="st6" d="M306.46,303.25c1.19,0,2.32-0.47,3.16-1.31c0.84-0.84,1.31-1.98,1.31-3.16c0-1.19-0.47-2.32-1.31-3.16
		c-0.84-0.84-1.98-1.31-3.16-1.31s-2.32,0.47-3.16,1.31c-0.84,0.84-1.31,1.98-1.31,3.16c0,1.19,0.47,2.32,1.31,3.16
		S305.27,303.25,306.46,303.25L306.46,303.25z"/>
	<path class="st6" d="M387.93,134.93c1.19,0,2.32-0.47,3.16-1.31c0.84-0.84,1.31-1.98,1.31-3.16c0-1.19-0.47-2.32-1.31-3.16
		c-0.84-0.84-1.98-1.31-3.16-1.31s-2.32,0.47-3.16,1.31c-0.84,0.84-1.31,1.98-1.31,3.16c0,1.19,0.47,2.32,1.31,3.16
		C385.6,134.46,386.74,134.93,387.93,134.93L387.93,134.93z"/>
	<path class="st6" d="M387.12,107.76c1.19,0,2.32-0.47,3.16-1.31c0.84-0.84,1.31-1.98,1.31-3.16c0-1.19-0.47-2.32-1.31-3.16
		c-0.84-0.84-1.98-1.31-3.16-1.31s-2.32,0.47-3.16,1.31c-0.84,0.84-1.31,1.98-1.31,3.16c0,1.19,0.47,2.32,1.31,3.16
		C384.79,107.28,385.93,107.76,387.12,107.76L387.12,107.76z"/>
	<path class="st6" d="M256.28,309.54c1.19,0,2.32-0.47,3.16-1.31c0.84-0.84,1.31-1.98,1.31-3.16c0-1.19-0.47-2.32-1.31-3.16
		s-1.98-1.31-3.16-1.31c-1.19,0-2.32,0.47-3.16,1.31s-1.31,1.98-1.31,3.16c0,1.19,0.47,2.32,1.31,3.16
		C253.96,309.06,255.1,309.54,256.28,309.54L256.28,309.54z"/>
	<path class="st6" d="M388.74,108.1c1.19,0,2.32-0.47,3.16-1.31c0.84-0.84,1.31-1.98,1.31-3.16c0-1.19-0.47-2.32-1.31-3.16
		c-0.84-0.84-1.98-1.31-3.16-1.31s-2.32,0.47-3.16,1.31c-0.84,0.84-1.31,1.98-1.31,3.16c0,1.19,0.47,2.32,1.31,3.16
		C386.42,107.63,387.56,108.1,388.74,108.1L388.74,108.1z"/>
	<path class="st6" d="M239.48,312.03c1.19,0,2.32-0.47,3.16-1.31c0.84-0.84,1.31-1.98,1.31-3.16s-0.47-2.32-1.31-3.16
		c-0.84-0.84-1.98-1.31-3.16-1.31c-1.19,0-2.32,0.47-3.16,1.31c-0.84,0.84-1.31,1.98-1.31,3.16s0.47,2.32,1.31,3.16
		C237.15,311.56,238.29,312.03,239.48,312.03L239.48,312.03z"/>
	<path class="st6" d="M387.77,94.84c1.19,0,2.32-0.47,3.16-1.31s1.31-1.98,1.31-3.16c0-1.19-0.47-2.32-1.31-3.16
		s-1.98-1.31-3.16-1.31s-2.32,0.47-3.16,1.31s-1.31,1.98-1.31,3.16c0,1.19,0.47,2.32,1.31,3.16S386.59,94.84,387.77,94.84
		L387.77,94.84z"/>
	<path class="st6" d="M235.66,314.17c1.19,0,2.32-0.47,3.16-1.31c0.84-0.84,1.31-1.98,1.31-3.16c0-1.19-0.47-2.32-1.31-3.16
		c-0.84-0.84-1.98-1.31-3.16-1.31s-2.32,0.47-3.16,1.31c-0.84,0.84-1.31,1.98-1.31,3.16c0,1.19,0.47,2.32,1.31,3.16
		C233.34,313.7,234.48,314.17,235.66,314.17L235.66,314.17z"/>
	<path class="st6" d="M387.64,80.01c1.19,0,2.32-0.47,3.16-1.31c0.84-0.84,1.31-1.98,1.31-3.16c0-1.19-0.47-2.32-1.31-3.16
		c-0.84-0.84-1.98-1.31-3.16-1.31s-2.32,0.47-3.16,1.31c-0.84,0.84-1.31,1.98-1.31,3.16c0,1.19,0.47,2.32,1.31,3.16
		C385.32,79.54,386.46,80.01,387.64,80.01L387.64,80.01z"/>
	<path class="st6" d="M389.2,79.21c1.19,0,2.32-0.47,3.16-1.31c0.84-0.84,1.31-1.98,1.31-3.16c0-1.19-0.47-2.32-1.31-3.16
		c-0.84-0.84-1.98-1.31-3.16-1.31c-1.19,0-2.32,0.47-3.16,1.31s-1.31,1.98-1.31,3.16c0,1.19,0.47,2.32,1.31,3.16
		S388.02,79.21,389.2,79.21L389.2,79.21z"/>
	<path class="st6" d="M271.24,325.34c1.19,0,2.32-0.47,3.16-1.31c0.84-0.84,1.31-1.98,1.31-3.16s-0.47-2.32-1.31-3.16
		c-0.84-0.84-1.98-1.31-3.16-1.31c-1.19,0-2.32,0.47-3.16,1.31c-0.84,0.84-1.31,1.98-1.31,3.16s0.47,2.32,1.31,3.16
		S270.06,325.34,271.24,325.34L271.24,325.34z"/>
	<path class="st6" d="M298.18,325.4c1.19,0,2.32-0.47,3.16-1.31c0.84-0.84,1.31-1.98,1.31-3.16c0-1.19-0.47-2.32-1.31-3.16
		s-1.98-1.31-3.16-1.31c-1.19,0-2.32,0.47-3.16,1.31c-0.84,0.84-1.31,1.98-1.31,3.16c0,1.19,0.47,2.32,1.31,3.16
		C295.85,324.93,296.99,325.4,298.18,325.4L298.18,325.4z"/>
	<path class="st6" d="M286.2,330.27c1.19,0,2.32-0.47,3.16-1.31c0.84-0.84,1.31-1.98,1.31-3.16s-0.47-2.32-1.31-3.16
		c-0.84-0.84-1.98-1.31-3.16-1.31c-1.19,0-2.32,0.47-3.16,1.31c-0.84,0.84-1.31,1.98-1.31,3.16s0.47,2.32,1.31,3.16
		C283.87,329.8,285.01,330.27,286.2,330.27L286.2,330.27z"/>
	<path class="st6" d="M255.75,332.2c1.19,0,2.32-0.47,3.16-1.31s1.31-1.98,1.31-3.16s-0.47-2.32-1.31-3.16
		c-0.84-0.84-1.98-1.31-3.16-1.31c-1.19,0-2.32,0.47-3.16,1.31c-0.84,0.84-1.31,1.98-1.31,3.16s0.47,2.32,1.31,3.16
		S254.57,332.2,255.75,332.2L255.75,332.2z"/>
	<path class="st6" d="M237.23,335.48c1.19,0,2.32-0.47,3.16-1.31c0.84-0.84,1.31-1.98,1.31-3.16c0-1.19-0.47-2.32-1.31-3.16
		c-0.84-0.84-1.98-1.31-3.16-1.31s-2.32,0.47-3.16,1.31c-0.84,0.84-1.31,1.98-1.31,3.16c0,1.19,0.47,2.32,1.31,3.16
		C234.91,335.01,236.05,335.48,237.23,335.48L237.23,335.48z"/>
	<path class="st6" d="M206.52,338.15c1.19,0,2.32-0.47,3.16-1.31c0.84-0.84,1.31-1.98,1.31-3.16s-0.47-2.32-1.31-3.16
		c-0.84-0.84-1.98-1.31-3.16-1.31c-1.19,0-2.32,0.47-3.16,1.31c-0.84,0.84-1.31,1.98-1.31,3.16s0.47,2.32,1.31,3.16
		C204.2,337.68,205.34,338.15,206.52,338.15L206.52,338.15z"/>
	<path class="st6" d="M196.49,338.37c1.19,0,2.32-0.47,3.16-1.31s1.31-1.98,1.31-3.16c0-1.19-0.47-2.32-1.31-3.16
		c-0.84-0.84-1.98-1.31-3.16-1.31c-1.19,0-2.32,0.47-3.16,1.31c-0.84,0.84-1.31,1.98-1.31,3.16c0,1.19,0.47,2.32,1.31,3.16
		S195.3,338.37,196.49,338.37L196.49,338.37z"/>
	<path class="st6" d="M214.13,341.93c1.19,0,2.32-0.47,3.16-1.31c0.84-0.84,1.31-1.98,1.31-3.16s-0.47-2.32-1.31-3.16
		c-0.84-0.84-1.98-1.31-3.16-1.31s-2.32,0.47-3.16,1.31c-0.84,0.84-1.31,1.98-1.31,3.16s0.47,2.32,1.31,3.16
		C211.8,341.46,212.94,341.93,214.13,341.93L214.13,341.93z"/>
	<path class="st6" d="M182.95,343.8c1.19,0,2.32-0.47,3.16-1.31c0.84-0.84,1.31-1.98,1.31-3.16s-0.47-2.32-1.31-3.16
		c-0.84-0.84-1.98-1.31-3.16-1.31c-1.19,0-2.32,0.47-3.16,1.31c-0.84,0.84-1.31,1.98-1.31,3.16s0.47,2.32,1.31,3.16
		C180.63,343.33,181.77,343.8,182.95,343.8L182.95,343.8z"/>
	<path class="st6" d="M140.56,348.24c1.19,0,2.32-0.47,3.16-1.31c0.84-0.84,1.31-1.98,1.31-3.16c0-1.19-0.47-2.32-1.31-3.16
		c-0.84-0.84-1.98-1.31-3.16-1.31s-2.32,0.47-3.16,1.31c-0.84,0.84-1.31,1.98-1.31,3.16c0,1.19,0.47,2.32,1.31,3.16
		S139.37,348.24,140.56,348.24L140.56,348.24z"/>
	<path class="st6" d="M121.14,351.97c1.19,0,2.32-0.47,3.16-1.31c0.84-0.84,1.31-1.98,1.31-3.16s-0.47-2.32-1.31-3.16
		c-0.84-0.84-1.98-1.31-3.16-1.31c-1.19,0-2.32,0.47-3.16,1.31c-0.84,0.84-1.31,1.98-1.31,3.16s0.47,2.32,1.31,3.16
		C118.82,351.5,119.96,351.97,121.14,351.97L121.14,351.97z"/>
	<path class="st6" d="M96.89,358.07c1.19,0,2.32-0.47,3.16-1.31c0.84-0.84,1.31-1.98,1.31-3.16s-0.47-2.32-1.31-3.16
		c-0.84-0.84-1.98-1.31-3.16-1.31c-1.19,0-2.32,0.47-3.16,1.31c-0.84,0.84-1.31,1.98-1.31,3.16s0.47,2.32,1.31,3.16
		C94.57,357.6,95.71,358.07,96.89,358.07L96.89,358.07z"/>
	<path class="st6" d="M80.53,365.75c1.19,0,2.32-0.47,3.16-1.31c0.84-0.84,1.31-1.98,1.31-3.16c0-1.19-0.47-2.32-1.31-3.16
		c-0.84-0.84-1.98-1.31-3.16-1.31c-1.19,0-2.32,0.47-3.16,1.31c-0.84,0.84-1.31,1.98-1.31,3.16c0,1.19,0.47,2.32,1.31,3.16
		C78.2,365.28,79.34,365.75,80.53,365.75L80.53,365.75z"/>
	<path class="st6" d="M81.57,372.67c1.19,0,2.32-0.47,3.16-1.31c0.84-0.84,1.31-1.98,1.31-3.16c0-1.19-0.47-2.32-1.31-3.16
		c-0.84-0.84-1.98-1.31-3.16-1.31s-2.32,0.47-3.16,1.31c-0.84,0.84-1.31,1.98-1.31,3.16c0,1.19,0.47,2.32,1.31,3.16
		C79.24,372.2,80.38,372.67,81.57,372.67L81.57,372.67z"/>
	<path class="st6" d="M61.94,375.11c1.19,0,2.32-0.47,3.16-1.31c0.84-0.84,1.31-1.98,1.31-3.16c0-1.19-0.47-2.32-1.31-3.16
		c-0.84-0.84-1.98-1.31-3.16-1.31c-1.19,0-2.32,0.47-3.16,1.31c-0.84,0.84-1.31,1.98-1.31,3.16c0,1.19,0.47,2.32,1.31,3.16
		C59.61,374.64,60.75,375.11,61.94,375.11L61.94,375.11z"/>
	<path class="st6" d="M44.83,375.9c1.19,0,2.32-0.47,3.16-1.31c0.84-0.84,1.31-1.98,1.31-3.16s-0.47-2.32-1.31-3.16
		c-0.84-0.84-1.98-1.31-3.16-1.31c-1.19,0-2.32,0.47-3.16,1.31c-0.84,0.84-1.31,1.98-1.31,3.16s0.47,2.32,1.31,3.16
		C42.5,375.43,43.64,375.9,44.83,375.9L44.83,375.9z"/>
	<path class="st6" d="M45.59,375.93c1.19,0,2.32-0.47,3.16-1.31c0.84-0.84,1.31-1.98,1.31-3.16c0-1.19-0.47-2.32-1.31-3.16
		c-0.84-0.84-1.98-1.31-3.16-1.31s-2.32,0.47-3.16,1.31c-0.84,0.84-1.31,1.98-1.31,3.16c0,1.19,0.47,2.32,1.31,3.16
		C43.27,375.46,44.41,375.93,45.59,375.93L45.59,375.93z"/>
	<path class="st6" d="M51.68,376.48c1.19,0,2.32-0.47,3.16-1.31c0.84-0.84,1.31-1.98,1.31-3.16s-0.47-2.32-1.31-3.16
		c-0.84-0.84-1.98-1.31-3.16-1.31s-2.32,0.47-3.16,1.31c-0.84,0.84-1.31,1.98-1.31,3.16s0.47,2.32,1.31,3.16
		C49.35,376.01,50.49,376.48,51.68,376.48L51.68,376.48z"/>
	<path class="st5" d="M128.55,13.09c-1.08,0-1.93,0.4-2.56,1.2c-0.63,0.8-0.94,1.89-0.94,3.27c0,1.38,0.31,2.47,0.94,3.27
		c0.64,0.8,1.49,1.2,2.56,1.2s1.93-0.4,2.55-1.2c0.63-0.8,0.94-1.89,0.94-3.27c0-1.38-0.31-2.48-0.94-3.27
		C130.48,13.49,129.63,13.09,128.55,13.09 M128.55,11.88c1.53,0,2.76,0.51,3.68,1.55c0.92,1.03,1.38,2.4,1.38,4.13
		c0,1.72-0.46,3.1-1.38,4.13c-0.92,1.03-2.15,1.54-3.68,1.54c-1.54,0-2.77-0.51-3.69-1.54c-0.92-1.03-1.38-2.4-1.38-4.13
		s0.46-3.11,1.38-4.13C125.78,12.4,127.02,11.88,128.55,11.88L128.55,11.88z"/>
	<path class="st5" d="M137.12,21.79v4.35h-1.35V14.81h1.35v1.25c0.29-0.49,0.64-0.85,1.07-1.08c0.43-0.24,0.95-0.36,1.55-0.36
		c1,0,1.8,0.4,2.42,1.19s0.94,1.83,0.94,3.12s-0.31,2.33-0.94,3.12s-1.43,1.19-2.42,1.19c-0.6,0-1.12-0.12-1.55-0.35
		C137.76,22.64,137.41,22.28,137.12,21.79 M141.7,18.92c0-0.99-0.21-1.77-0.62-2.33c-0.4-0.56-0.97-0.85-1.68-0.85
		s-1.27,0.29-1.68,0.85c-0.4,0.56-0.61,1.34-0.61,2.33s0.21,1.77,0.61,2.34c0.41,0.56,0.97,0.84,1.68,0.84s1.27-0.28,1.68-0.84
		C141.5,20.7,141.7,19.91,141.7,18.92L141.7,18.92z"/>
	<path class="st5" d="M146.51,12.49v2.33h2.78v1.05h-2.78v4.45c0,0.67,0.09,1.1,0.27,1.29s0.56,0.29,1.12,0.29h1.38v1.13h-1.38
		c-1.04,0-1.76-0.19-2.15-0.58s-0.59-1.1-0.59-2.12v-4.45h-0.99v-1.05h0.99v-2.33H146.51L146.51,12.49z"/>
	<path class="st5" d="M151.18,14.81h1.35v8.2h-1.35V14.81 M151.18,11.62h1.35v1.71h-1.35V11.62L151.18,11.62z"/>
	<path class="st5" d="M161.64,16.39c0.34-0.61,0.74-1.05,1.21-1.34s1.02-0.43,1.66-0.43c0.86,0,1.52,0.3,1.98,0.9
		c0.46,0.59,0.7,1.44,0.7,2.55v4.95h-1.35v-4.91c0-0.78-0.14-1.37-0.42-1.75s-0.7-0.57-1.27-0.57c-0.7,0-1.25,0.23-1.66,0.7
		s-0.61,1.1-0.61,1.9v4.64h-1.35v-4.91c0-0.79-0.14-1.38-0.42-1.75c-0.28-0.38-0.71-0.57-1.29-0.57c-0.69,0-1.24,0.23-1.64,0.7
		c-0.4,0.46-0.61,1.09-0.61,1.89v4.64h-1.35v-8.2h1.35v1.27c0.31-0.51,0.67-0.87,1.11-1.11s0.94-0.36,1.53-0.36s1.1,0.15,1.52,0.45
		S161.45,15.81,161.64,16.39L161.64,16.39z"/>
	<path class="st5" d="M169.9,14.81h1.35v8.2h-1.35V14.81 M169.9,11.62h1.35v1.71h-1.35V11.62L169.9,11.62z"/>
	<polygon class="st5" points="173.39,14.81 179.79,14.81 179.79,16.04 174.72,21.94 179.79,21.94 179.79,23.02 173.21,23.02 
		173.21,21.79 178.28,15.89 173.39,15.89 173.39,14.81 	"/>
	<path class="st5" d="M185.62,18.89c-1.09,0-1.85,0.12-2.26,0.37s-0.63,0.67-0.63,1.27c0,0.48,0.15,0.86,0.47,1.14
		c0.31,0.28,0.75,0.42,1.29,0.42c0.75,0,1.35-0.26,1.79-0.79c0.45-0.53,0.68-1.24,0.68-2.12v-0.3H185.62 M188.31,18.34v4.68h-1.35
		v-1.25c-0.31,0.5-0.69,0.86-1.15,1.11c-0.46,0.23-1.02,0.35-1.68,0.35c-0.84,0-1.51-0.23-2.01-0.7c-0.49-0.48-0.74-1.11-0.74-1.9
		c0-0.92,0.31-1.62,0.92-2.09c0.62-0.47,1.55-0.7,2.77-0.7h1.89v-0.13c0-0.62-0.21-1.1-0.62-1.44c-0.4-0.34-0.97-0.51-1.71-0.51
		c-0.47,0-0.92,0.06-1.37,0.17s-0.87,0.28-1.28,0.51v-1.25c0.49-0.19,0.97-0.33,1.44-0.42s0.92-0.15,1.35-0.15
		c1.19,0,2.07,0.31,2.66,0.92S188.31,17.08,188.31,18.34L188.31,18.34z"/>
	<path class="st5" d="M192.59,12.49v2.33h2.78v1.05h-2.78v4.45c0,0.67,0.09,1.1,0.27,1.29s0.56,0.29,1.12,0.29h1.38v1.13h-1.38
		c-1.04,0-1.76-0.19-2.15-0.58s-0.59-1.1-0.59-2.12v-4.45h-0.99v-1.05h0.99v-2.33H192.59L192.59,12.49z"/>
	<path class="st5" d="M197.02,14.81h1.35v8.2h-1.35V14.81 M197.02,11.62h1.35v1.71h-1.35V11.62L197.02,11.62z"/>
	<path class="st5" d="M204.27,15.76c-0.73,0-1.3,0.29-1.71,0.85s-0.63,1.33-0.63,2.31s0.21,1.76,0.62,2.32s1,0.84,1.72,0.84
		c0.72,0,1.29-0.29,1.71-0.85s0.63-1.34,0.63-2.31s-0.21-1.74-0.63-2.31C205.56,16.04,204.99,15.76,204.27,15.76 M204.27,14.62
		c1.17,0,2.09,0.38,2.76,1.14s1,1.82,1,3.16c0,1.34-0.34,2.4-1,3.16c-0.67,0.76-1.59,1.14-2.76,1.14c-1.18,0-2.1-0.38-2.77-1.14
		c-0.67-0.77-1-1.82-1-3.16c0-1.35,0.33-2.4,1-3.16S203.1,14.62,204.27,14.62L204.27,14.62z"/>
	<path class="st5" d="M217.27,18.07v4.95h-1.35v-4.91c0-0.78-0.15-1.35-0.45-1.74s-0.75-0.58-1.36-0.58c-0.73,0-1.3,0.23-1.72,0.7
		s-0.63,1.1-0.63,1.9v4.64h-1.35v-8.2h1.35v1.27c0.32-0.49,0.7-0.86,1.14-1.11c0.44-0.24,0.94-0.37,1.52-0.37
		c0.94,0,1.66,0.29,2.14,0.88C217.03,16.07,217.27,16.93,217.27,18.07L217.27,18.07z"/>
	<path class="st5" d="M229.86,17.89c0.31,0.11,0.62,0.34,0.92,0.69s0.61,0.83,0.91,1.45l1.5,2.99h-1.59l-1.4-2.81
		c-0.36-0.73-0.71-1.22-1.05-1.46c-0.34-0.24-0.8-0.36-1.38-0.36h-1.61v4.62h-1.48V12.08h3.34c1.25,0,2.18,0.26,2.8,0.78
		s0.92,1.31,0.92,2.37c0,0.69-0.16,1.26-0.48,1.71C230.94,17.4,230.47,17.71,229.86,17.89 M226.15,13.3v3.88h1.86
		c0.71,0,1.25-0.16,1.61-0.49c0.37-0.33,0.55-0.82,0.55-1.46s-0.18-1.12-0.55-1.44c-0.36-0.33-0.9-0.49-1.61-0.49H226.15
		L226.15,13.3z"/>
	<path class="st5" d="M241.47,18.58v0.66h-6.2c0.06,0.93,0.34,1.63,0.83,2.12c0.51,0.48,1.2,0.73,2.09,0.73
		c0.52,0,1.02-0.07,1.5-0.19c0.49-0.12,0.97-0.31,1.45-0.57v1.27c-0.48,0.21-0.98,0.36-1.49,0.47s-1.03,0.16-1.55,0.16
		c-1.31,0-2.34-0.38-3.11-1.14c-0.76-0.76-1.14-1.79-1.14-3.09c0-1.34,0.36-2.41,1.08-3.19c0.73-0.79,1.71-1.19,2.94-1.19
		c1.11,0,1.98,0.36,2.61,1.07C241.15,16.4,241.47,17.36,241.47,18.58 M240.12,18.18c-0.01-0.74-0.22-1.33-0.62-1.77
		s-0.93-0.66-1.6-0.66c-0.75,0-1.35,0.21-1.81,0.64c-0.45,0.42-0.71,1.03-0.78,1.79L240.12,18.18L240.12,18.18z"/>
	<path class="st5" d="M248.81,15.06v1.27c-0.38-0.2-0.78-0.34-1.19-0.44s-0.83-0.15-1.27-0.15c-0.67,0-1.17,0.1-1.51,0.31
		c-0.33,0.21-0.5,0.51-0.5,0.92c0,0.31,0.12,0.56,0.36,0.74c0.24,0.18,0.72,0.34,1.44,0.51l0.46,0.1c0.96,0.21,1.63,0.5,2.04,0.87
		s0.61,0.89,0.61,1.56c0,0.76-0.3,1.36-0.91,1.81c-0.6,0.45-1.43,0.67-2.48,0.67c-0.44,0-0.9-0.04-1.38-0.13
		c-0.48-0.08-0.97-0.21-1.5-0.38v-1.39c0.5,0.26,0.99,0.45,1.47,0.59c0.48,0.12,0.96,0.19,1.44,0.19c0.64,0,1.12-0.11,1.46-0.32
		c0.34-0.22,0.51-0.53,0.51-0.92c0-0.37-0.12-0.64-0.37-0.84c-0.24-0.2-0.78-0.38-1.62-0.56l-0.47-0.11
		c-0.83-0.18-1.44-0.45-1.81-0.81c-0.37-0.37-0.56-0.86-0.56-1.5c0-0.77,0.27-1.37,0.82-1.79s1.33-0.63,2.33-0.63
		c0.5,0,0.97,0.04,1.41,0.11S248.43,14.91,248.81,15.06L248.81,15.06z"/>
	<path class="st5" d="M251.36,19.78v-4.97h1.35v4.91c0,0.78,0.15,1.36,0.45,1.75s0.75,0.58,1.36,0.58c0.73,0,1.3-0.23,1.72-0.7
		c0.42-0.46,0.64-1.1,0.64-1.9v-4.65h1.35v8.2h-1.35v-1.26c-0.33,0.5-0.71,0.87-1.14,1.11s-0.93,0.36-1.5,0.36
		c-0.94,0-1.66-0.29-2.15-0.88S251.36,20.91,251.36,19.78 M254.75,14.62L254.75,14.62L254.75,14.62z"/>
	<polygon class="st5" points="261.1,11.62 262.44,11.62 262.44,23.02 261.1,23.02 261.1,11.62 	"/>
	<path class="st5" d="M266.51,12.49v2.33h2.78v1.05h-2.78v4.45c0,0.67,0.09,1.1,0.27,1.29s0.56,0.29,1.12,0.29h1.38v1.13h-1.38
		c-1.04,0-1.76-0.19-2.15-0.58s-0.59-1.1-0.59-2.12v-4.45h-0.99v-1.05h0.99v-2.33H266.51L266.51,12.49z"/>
	<path class="st5" d="M278.91,15.76c-0.73,0-1.3,0.29-1.71,0.85s-0.63,1.33-0.63,2.31s0.21,1.76,0.62,2.32s1,0.84,1.72,0.84
		c0.72,0,1.29-0.29,1.71-0.85s0.63-1.34,0.63-2.31s-0.21-1.74-0.63-2.31C280.2,16.04,279.63,15.76,278.91,15.76 M278.91,14.62
		c1.17,0,2.09,0.38,2.76,1.14s1,1.82,1,3.16c0,1.34-0.34,2.4-1,3.16c-0.67,0.76-1.59,1.14-2.76,1.14c-1.18,0-2.1-0.38-2.77-1.14
		c-0.67-0.77-1-1.82-1-3.16c0-1.35,0.33-2.4,1-3.16S277.74,14.62,278.91,14.62L278.91,14.62z"/>
	<path class="st5" d="M289.25,11.62v1.12h-1.29c-0.48,0-0.82,0.1-1.01,0.29c-0.18,0.2-0.28,0.55-0.28,1.05v0.73h2.22v1.05h-2.22
		v7.16h-1.35v-7.16h-1.29v-1.05h1.29v-0.57c0-0.92,0.21-1.57,0.64-1.99s1.1-0.63,2.02-0.63H289.25L289.25,11.62z"/>
	<path class="st5" d="M296.47,17.8v4.01h2.37c0.8,0,1.38-0.16,1.77-0.49c0.39-0.33,0.58-0.83,0.58-1.52s-0.19-1.19-0.58-1.51
		c-0.38-0.33-0.97-0.49-1.77-0.49H296.47 M296.47,13.3v3.3h2.19c0.73,0,1.26-0.13,1.61-0.4c0.36-0.27,0.53-0.69,0.53-1.25
		c0-0.55-0.18-0.97-0.53-1.24c-0.35-0.27-0.89-0.41-1.61-0.41H296.47 M294.99,12.08h3.78c1.13,0,2,0.23,2.61,0.7s0.92,1.14,0.92,2
		c0,0.67-0.15,1.2-0.47,1.6s-0.77,0.64-1.38,0.74c0.73,0.15,1.29,0.48,1.69,0.98c0.4,0.49,0.61,1.11,0.61,1.85
		c0,0.97-0.33,1.73-1,2.26s-1.61,0.8-2.83,0.8h-3.93V12.08L294.99,12.08z"/>
	<polygon class="st5" points="305.31,12.08 307.52,12.08 310.31,19.52 313.11,12.08 315.32,12.08 315.32,23.02 313.88,23.02 
		313.88,13.42 311.06,20.92 309.57,20.92 306.75,13.42 306.75,23.02 305.31,23.02 305.31,12.08 	"/>
	<path class="st5" d="M319.75,13.3v4.11h1.86c0.69,0,1.22-0.18,1.6-0.53s0.56-0.86,0.56-1.52c0-0.65-0.19-1.16-0.56-1.52
		s-0.91-0.53-1.6-0.53H319.75 M318.27,12.08h3.34c1.22,0,2.15,0.28,2.78,0.83c0.63,0.55,0.94,1.36,0.94,2.43
		c0,1.08-0.31,1.9-0.94,2.45c-0.62,0.55-1.55,0.83-2.78,0.83h-1.86v4.39h-1.48V12.08L318.27,12.08z"/>
	<path class="st5" d="M332.33,15.06v1.27c-0.38-0.2-0.78-0.34-1.19-0.44s-0.83-0.15-1.27-0.15c-0.67,0-1.17,0.1-1.51,0.31
		c-0.33,0.21-0.5,0.51-0.5,0.92c0,0.31,0.12,0.56,0.36,0.74c0.24,0.18,0.72,0.34,1.44,0.51l0.46,0.1c0.96,0.21,1.63,0.5,2.04,0.87
		s0.61,0.89,0.61,1.56c0,0.76-0.3,1.36-0.91,1.81c-0.6,0.45-1.43,0.67-2.48,0.67c-0.44,0-0.9-0.04-1.38-0.13
		c-0.48-0.08-0.97-0.21-1.5-0.38v-1.39c0.5,0.26,0.99,0.45,1.47,0.59c0.48,0.12,0.96,0.19,1.44,0.19c0.64,0,1.12-0.11,1.46-0.32
		c0.34-0.22,0.51-0.53,0.51-0.92c0-0.37-0.12-0.64-0.37-0.84c-0.24-0.2-0.78-0.38-1.62-0.56l-0.47-0.11
		c-0.83-0.18-1.44-0.45-1.81-0.81c-0.37-0.37-0.56-0.86-0.56-1.5c0-0.77,0.27-1.37,0.82-1.79s1.33-0.63,2.33-0.63
		c0.5,0,0.97,0.04,1.41,0.11S331.95,14.91,332.33,15.06L332.33,15.06z"/>
</g>
</svg>
