<svg id="图层_1" data-name="图层 1" xmlns="http://www.w3.org/2000/svg" viewBox="0 0 145.05 51.09"><defs><style>.cls-1{fill:#e7532d;}.cls-1,.cls-2,.cls-4{stroke:#231815;stroke-miterlimit:10;}.cls-2{fill:#048ac7;}.cls-3{opacity:0.86;isolation:isolate;}.cls-4{fill:#fada7a;}</style></defs><path class="cls-1" d="M35.28,10.05A6.78,6.78,0,0,1,35,5.76a6.13,6.13,0,0,1,2-3.24,5.39,5.39,0,0,1,3.51-1.17,6.47,6.47,0,0,1,4.23,1.92,8.14,8.14,0,0,1,1.89,2.49,17.09,17.09,0,0,1,1.11,2.91A40.36,40.36,0,0,1,49.29,19.8a32.61,32.61,0,0,1-2,11q-1,2.76-2.1,5.37a23.61,23.61,0,0,1-2.88,4.89A25.06,25.06,0,0,1,36.36,47a17.85,17.85,0,0,1-7.44,2.94,21.43,21.43,0,0,1-8.73-.33,20.37,20.37,0,0,1-7.14-3.42,21.7,21.7,0,0,1-5.34-5.85,27,27,0,0,1-3.27-7.62,36.52,36.52,0,0,1-1.11-7.56q-.15-3.78,0-7.68.3-3.3.9-6.48a15.77,15.77,0,0,1,2.4-5.88A6.5,6.5,0,0,1,8.37,3.39a6.1,6.1,0,0,1,2.07-.9,4.74,4.74,0,0,1,4,1.32,6.18,6.18,0,0,1,1.74,4.38q.18,6.24.51,11.37A45.78,45.78,0,0,0,18,28.38a13.26,13.26,0,0,0,2.94,5.76,7.28,7.28,0,0,0,5.43,2.13,6,6,0,0,0,4.59-2.16,16.26,16.26,0,0,0,3.33-5.88,32.84,32.84,0,0,0,1.59-8.4A39.78,39.78,0,0,0,35.28,10.05Z" transform="translate(-2.76 -0.85)"/><path class="cls-2" d="M77.15,41.05l.86.74a7.25,7.25,0,0,0,.75.55,8.39,8.39,0,0,1,.83.68c.25.23.5.5.77.79a4.51,4.51,0,0,1,1.29,2.66,4.35,4.35,0,0,1-.57,2.73,4.78,4.78,0,0,1-2.24,1.89,4.21,4.21,0,0,1-2.92.17,5.56,5.56,0,0,1-1.85-.8,11.2,11.2,0,0,1-1.58-1.26c-.34-.38-.66-.74-1-1.1s-.59-.68-.85-1c-1.15.42-2.23.87-3.26,1.35a17,17,0,0,1-3.13,1.12,17.69,17.69,0,0,1-8.81.14,25.65,25.65,0,0,1-8.06-3.66,18.21,18.21,0,0,1-2.15-1.72c-.67-.61-1.31-1.24-1.91-1.87q-7.44-7.87-4.68-18.59a31.71,31.71,0,0,1,5-11,28.8,28.8,0,0,1,8.89-8,18.74,18.74,0,0,1,6.2-2.33,22.76,22.76,0,0,1,6.63-.29,23.15,23.15,0,0,1,6.37,1.58A21,21,0,0,1,77.23,7.1a19.07,19.07,0,0,1,6.08,8.45,21.5,21.5,0,0,1,.74,10.56A29.64,29.64,0,0,1,81.77,34,26.77,26.77,0,0,1,77.15,41.05Zm-9.24-8.93a22.87,22.87,0,0,0,2.42-4,13.87,13.87,0,0,0,1.17-4.26c.46-4.1-1.29-6.7-5.28-7.8a8.69,8.69,0,0,0-3-.14,15.12,15.12,0,0,0-3.22.72A14.12,14.12,0,0,0,57,18a8.71,8.71,0,0,0-2.21,1.89,19.09,19.09,0,0,0-2.42,3.53,16.63,16.63,0,0,0-1.58,4.09,13.58,13.58,0,0,0-.38,4.12,7.38,7.38,0,0,0,1.09,3.55,6.56,6.56,0,0,0,2.87,2.41,10.26,10.26,0,0,0,4.92.7,4,4,0,0,0,1.8-.44,11.4,11.4,0,0,0,1.65-1.05c-.22-.34-.42-.62-.58-.85s-.33-.47-.48-.72q-.6-1-1.11-2a18.29,18.29,0,0,1-.94-2.1A2.7,2.7,0,0,1,60,28.26a3.06,3.06,0,0,1,2.73-1,2.45,2.45,0,0,1,1.36.47,7.12,7.12,0,0,1,1.08,1,18.5,18.5,0,0,1,1.3,1.6C66.92,30.9,67.38,31.49,67.91,32.12Z" transform="translate(-2.76 -0.85)"/><path class="cls-3" d="M91.1,31.38h49.71c3.87,0,7,2.52,7,5.63v9.11c0,3.11-3.13,5.63-7,5.63H91.1c-3.86,0-7-2.52-7-5.63V37C84.11,33.9,87.24,31.38,91.1,31.38Z" transform="translate(-2.76 -0.85)"/><path class="cls-4" d="M94,34a4.41,4.41,0,0,1,1.68.28,3.94,3.94,0,0,1,1.28.87,4.33,4.33,0,0,1,1.3,3.19v2.12a4.22,4.22,0,0,1-.7.17,5.75,5.75,0,0,1-.87.06,3.36,3.36,0,0,1-1.85-.38,1.29,1.29,0,0,1-.57-1.13A8.09,8.09,0,0,1,94.4,38,1.94,1.94,0,0,0,94,38a2.6,2.6,0,0,0-1.19.28A2.77,2.77,0,0,0,92,39a1.44,1.44,0,0,0-.33.88v.08a.8.8,0,0,0,.25.58,2.66,2.66,0,0,0,1,.45l2,.63a6.78,6.78,0,0,1,2.29,1.12A3.81,3.81,0,0,1,98.24,44a3,3,0,0,1,.29,1.21v.24a3.39,3.39,0,0,1-1.5,3,7.16,7.16,0,0,1-4.08,1q-3.56,0-4.77-1.29a2.79,2.79,0,0,1-.61-1.12,6,6,0,0,1-.21-1.69c0-.32,0-.62,0-.89a6.47,6.47,0,0,1,.11-.68h.13A9.92,9.92,0,0,0,90,45a8.83,8.83,0,0,0,2.87.43A7.55,7.55,0,0,0,94,45.37a3.21,3.21,0,0,0,.83-.22v-.06A1.9,1.9,0,0,0,93.52,44l-2-.63a11.41,11.41,0,0,1-2.36-1A3.36,3.36,0,0,1,88,41.15a3.11,3.11,0,0,1-.34-1.46v-.27a4.63,4.63,0,0,1,.48-2.07,5.76,5.76,0,0,1,1.35-1.75,6.65,6.65,0,0,1,2-1.2A6.81,6.81,0,0,1,94,34Z" transform="translate(-2.76 -0.85)"/><path class="cls-4" d="M100.66,34.38a4.87,4.87,0,0,1,.76-.15,8,8,0,0,1,.89,0,3.41,3.41,0,0,1,2,.44,1.8,1.8,0,0,1,.61,1.55,41.35,41.35,0,0,0,.27,5,18.11,18.11,0,0,0,.88,3.87h.15a23.94,23.94,0,0,0,1.36-4.68,38.56,38.56,0,0,0,.63-6H109a4.75,4.75,0,0,1,2.25.4,1.73,1.73,0,0,1,.74,1.46,31.82,31.82,0,0,0,.59,4.58,25.63,25.63,0,0,0,1.25,4.24H114a17.71,17.71,0,0,0,1-4.31,54.42,54.42,0,0,0,.27-6.37,6.73,6.73,0,0,1,1.6-.19,3.1,3.1,0,0,1,1.91.46,2.16,2.16,0,0,1,.59,1.76,26.78,26.78,0,0,1-1,7.55,11.46,11.46,0,0,1-2.92,5.12,4.81,4.81,0,0,1-.71.13,5.63,5.63,0,0,1-.8,0,2.57,2.57,0,0,1-.89-.13,1.8,1.8,0,0,1-.66-.43,7.85,7.85,0,0,1-1.31-2.12A18.63,18.63,0,0,1,110,42.86h-.1a24.29,24.29,0,0,1-1.23,3.82,10.82,10.82,0,0,1-1.36,2.4,3.94,3.94,0,0,1-.7.14,5.9,5.9,0,0,1-.72,0,3.2,3.2,0,0,1-1-.16,2.15,2.15,0,0,1-.85-.51,8.44,8.44,0,0,1-1.37-1.75,11.07,11.07,0,0,1-1-2.5,21.68,21.68,0,0,1-.66-3.56,48.51,48.51,0,0,1-.25-4.91C100.72,35.31,100.7,34.81,100.66,34.38Z" transform="translate(-2.76 -0.85)"/><path class="cls-4" d="M125.63,49.08c-.3.05-.6.1-.91.13a7,7,0,0,1-.9,0,3.23,3.23,0,0,1-1.87-.39,1.73,1.73,0,0,1-.5-1.43c0-.35,0-.7,0-1a1.46,1.46,0,0,1-.5-.89,7.54,7.54,0,0,1-.13-1.55v-.84h.92a26.47,26.47,0,0,1,.75-3.46,20.19,20.19,0,0,1,1.1-3A10.53,10.53,0,0,1,125,34.35a10.12,10.12,0,0,1,1.07-.14c.35,0,.72,0,1.11,0a6.74,6.74,0,0,1,2.11.28,3.33,3.33,0,0,1,1.46,1,6.21,6.21,0,0,1,1.09,1.88,17.62,17.62,0,0,1,.87,2.71c.25,1,.45,2.06.62,3.15s.29,2.21.36,3.33q.06.9.09,1.47c0,.38,0,.75.06,1.12a7.42,7.42,0,0,1-.87.13,8.69,8.69,0,0,1-1,0,3.59,3.59,0,0,1-1.89-.34,1.5,1.5,0,0,1-.55-1.25q0-.56-.06-1.05h-3.78Q125.65,47.78,125.63,49.08ZM127,43.13a4.16,4.16,0,0,1,1.15.15,2.12,2.12,0,0,1,1,.61l.13,0a31.93,31.93,0,0,0-.64-3.51,16.21,16.21,0,0,0-.92-2.69h-.1a13.18,13.18,0,0,0-.93,2.44,23.62,23.62,0,0,0-.61,3Z" transform="translate(-2.76 -0.85)"/><path class="cls-4" d="M142.34,49.08a8.28,8.28,0,0,1-1.74.18,3.2,3.2,0,0,1-2.15-.57,2.48,2.48,0,0,1-.64-1.92V38.51h-1.08a2.68,2.68,0,0,1-2-.64,3,3,0,0,1-.59-2.11,4.5,4.5,0,0,1,0-.75,3.21,3.21,0,0,1,.16-.63h9.49a1.74,1.74,0,0,1,1.55.61,3.62,3.62,0,0,1,.42,2,4.36,4.36,0,0,1-.23,1.51h-4.09l0,.11a1.68,1.68,0,0,1,.55.8,3.7,3.7,0,0,1,.14,1.09v5.94c0,.5,0,1,0,1.41A7.58,7.58,0,0,0,142.34,49.08Z" transform="translate(-2.76 -0.85)"/></svg>